<?xml version="1.0" encoding="utf-8"?>
<!-- Generator: Adobe Illustrator 15.1.0, SVG Export Plug-In . SVG Version: 6.00 Build 0)  -->
<!DOCTYPE svg PUBLIC "-//W3C//DTD SVG 1.1//EN" "http://www.w3.org/Graphics/SVG/1.1/DTD/svg11.dtd">
<svg version="1.1" id="圖層_1" xmlns="http://www.w3.org/2000/svg" xmlns:xlink="http://www.w3.org/1999/xlink" x="0px" y="0px"
	 width="50px" height="50px" viewBox="0 0 50 50" enable-background="new 0 0 50 50" xml:space="preserve">
<g>
	<g>
		<path fill="#FFFFFF" d="M25,28.975c-1.148,0-2.08-0.932-2.08-2.08V2.84c0-1.148,0.932-2.08,2.08-2.08s2.079,0.931,2.079,2.08
			v24.055C27.079,28.043,26.148,28.975,25,28.975L25,28.975z"/>
	</g>
	<g>
		<path fill="#FFFFFF" d="M25.001,49.24c-12.321,0-22.345-10.023-22.345-22.346c0-9.256,5.571-17.421,14.191-20.803
			c1.07-0.419,2.277,0.107,2.696,1.177s-0.107,2.276-1.177,2.695C11.35,12.716,6.815,19.362,6.815,26.895
			c0,10.027,8.157,18.186,18.186,18.186c10.026,0,18.184-8.158,18.184-18.186c0-7.533-4.534-14.179-11.551-16.931
			c-1.069-0.419-1.597-1.626-1.177-2.695s1.626-1.597,2.695-1.177c8.622,3.381,14.191,11.547,14.191,20.803
			C47.344,39.217,37.32,49.24,25.001,49.24L25.001,49.24z"/>
	</g>
</g>
</svg>
