<?xml version="1.0" encoding="utf-8"?>
<!-- Generator: Adobe Illustrator 15.1.0, SVG Export Plug-In . SVG Version: 6.00 Build 0)  -->
<!DOCTYPE svg PUBLIC "-//W3C//DTD SVG 1.1//EN" "http://www.w3.org/Graphics/SVG/1.1/DTD/svg11.dtd">
<svg version="1.1" id="圖層_1" xmlns="http://www.w3.org/2000/svg" xmlns:xlink="http://www.w3.org/1999/xlink" x="0px" y="0px"
	 width="570px" height="570px" viewBox="0 -105 570 570" enable-background="new 0 -105 570 570" xml:space="preserve">
<g>
	<path fill="#FFC683" d="M413.297,212.584c-2.935-6.963-6.821-9.874-20.662-9.127l2.115-0.494
		c15.133-2.967,30.434-26.371,25.244-40.276c-2.863-7.674-7.044-10.638-23.982-9.875c5.501-9.286,7.896-20.703,4.004-28.245
		c-3.975-7.7-8.778-9.992-28.013-6.416l-51.352,13.509l-9.266,5.033l-63.521,51.811c-88.31,60.927-142.926,216.564-142.926,216.564
		s70.532,61.552,158.252,7.793c53.542-32.813,81.922-72.151,95.91-97.828l22.896-8.327c14.673-4.748,27.076-29.805,20.27-42.996
		c-3.396-6.579-7.406-9.207-20.497-7.603l7.995-2.226C404.759,250.283,419.062,226.261,413.297,212.584z"/>
</g>
<g>
	<path fill-rule="evenodd" clip-rule="evenodd" fill="#EBEBEB" d="M213.551-79h142.898c17.155,0,31.064,13.85,31.064,30.935v374.302
		c0,17.085-13.909,30.934-31.064,30.934H213.551c-17.156,0-31.065-13.849-31.065-30.934V-48.065
		C182.486-65.15,196.394-79,213.551-79z"/>
	<path fill-rule="evenodd" clip-rule="evenodd" fill="#2A2A2A" d="M196.257-17.234h178.25v314.165h-178.25V-17.234z"/>
	<path fill-rule="evenodd" clip-rule="evenodd" fill="#2A2A2A" d="M284.999-62.224c2.114,0,3.826,1.707,3.826,3.813
		c0,2.106-1.712,3.813-3.826,3.813c-2.113,0-3.825-1.707-3.825-3.813C281.174-60.517,282.885-62.224,284.999-62.224z"/>
	<path fill-rule="evenodd" clip-rule="evenodd" fill="#808080" d="M270.464-45.448H300.3c2.113,0,3.825,1.707,3.825,3.813
		c0,2.106-1.712,3.813-3.825,3.813h-29.835c-2.113,0-3.825-1.707-3.825-3.813C266.639-43.741,268.351-45.448,270.464-45.448z"/>
	<path fill="#BCBCBC" d="M286.252,342.595c-8.715,0-15.806-7.088-15.806-15.802c0-8.713,7.091-15.802,15.806-15.802
		c8.716,0,15.806,7.089,15.806,15.802C302.057,335.507,294.968,342.595,286.252,342.595z M286.252,312.212
		c-8.042,0-14.584,6.541-14.584,14.581s6.542,14.581,14.584,14.581c8.043,0,14.585-6.541,14.585-14.581
		S294.295,312.212,286.252,312.212z"/>
</g>
</svg>
