<?xml version="1.0" encoding="utf-8"?>
<!-- Generator: Adobe Illustrator 15.1.0, SVG Export Plug-In . SVG Version: 6.00 Build 0)  -->
<!DOCTYPE svg PUBLIC "-//W3C//DTD SVG 1.1//EN" "http://www.w3.org/Graphics/SVG/1.1/DTD/svg11.dtd">
<svg version="1.1" id="圖層_1" xmlns="http://www.w3.org/2000/svg" xmlns:xlink="http://www.w3.org/1999/xlink" x="0px" y="0px"
	 width="570px" height="360px" viewBox="0 0 570 360" enable-background="new 0 0 570 360" xml:space="preserve">
<g>
	<path fill="#FEFFAD" d="M294.956,100.407c0,0,19.741-30.436-4.526-41.128c-24.268-10.693-21.8,14.808-21.8,35.371L294.956,100.407z
		"/>
	<path fill="#FEFFAD" d="M255.667,23.866c0.096-0.251,0.24-0.461,0.352-0.698c-0.083-0.605-0.135-1.218-0.135-1.845
		c0-7.545,5.982-13.661,13.364-13.661s13.367,6.116,13.367,13.661c0,4.972-2.609,9.313-6.499,11.7
		c-10.449,27.581-3.675,55.01-3.562,55.455c1.62,6.221-1.839,12.654-7.736,14.383c-0.998,0.292-1.995,0.429-2.979,0.429
		c-4.865,0-9.33-3.396-10.694-8.579C250.769,93.281,242.065,59.244,255.667,23.866z"/>
	<path fill="#595959" d="M250.229,159.976c-0.871-17.251-0.004-45.033,10.589-72.934l43.934,7.333
		c-6.369,31.673-5.096,60.962-4.249,72.164c9.704,19.099,18.834,60.616-12.087,90.692c-2.878,2.801-6.603,4.192-10.324,4.192
		c-3.855,0-7.711-1.498-10.613-4.481c-5.702-5.863-5.572-15.233,0.289-20.937c23.437-22.795,6.7-55.378,5.909-56.878
		c-0.083-0.156-0.147-0.317-0.224-0.477c-3.204,5.468-5.425,11.439-4.327,13.635c3.656,7.314,0.692,16.208-6.621,19.864
		c-2.125,1.063-4.386,1.566-6.612,1.566c-5.431,0-10.661-2.998-13.254-8.187C234.233,188.717,243.651,169.931,250.229,159.976z"/>
	<path fill="#FEFFAD" d="M271.096,274.996c2.746,0,5.482-1.139,7.431-3.371c8.827-10.089,5.849-24.394,5.48-25.994
		c-1.228-5.31-6.523-8.633-11.837-7.396c-5.287,1.218-8.594,6.478-7.416,11.766c0.395,1.875,0.666,6.627-1.083,8.626
		c-3.592,4.1-3.174,10.338,0.929,13.929C266.471,274.19,268.79,274.996,271.096,274.996z"/>
	<path fill="#FEFFAD" d="M266.972,222.232c-2.554,0-5.099-1.06-6.914-3.135c-8.209-9.388-5.438-22.69-5.096-24.177
		c1.137-4.942,6.067-8.034,11.01-6.881c4.918,1.132,7.992,6.024,6.896,10.942c-0.367,1.741-0.617,6.164,1.01,8.024
		c3.337,3.815,2.953,9.614-0.865,12.956C271.271,221.485,269.117,222.232,266.972,222.232z"/>
	<path fill="#595959" d="M250.47,44.676c1.084-6.755,2.83-13.844,5.456-21.006c4.93-0.526,13.311,0.419,20.065,10.254
		c-1.818,5.345-3.017,10.645-3.771,15.717C269.107,47.595,260.826,43.106,250.47,44.676z"/>
	<path fill="#FEFFAD" d="M300.89,94.035c5.618-2.458,12.167,0.106,14.621,5.724c0.118,0.27,1.411,3.272,2.974,8.309
		c1.864-1.159,4.104-1.742,6.454-1.436c5.426,0.706,9.214,5.659,8.511,11.066c-1.783,13.635-7.625,21.146-11.525,24.747
		c-1.808,2.694-4.735,4.605-8.219,4.909c-0.328,0.027-0.653,0.041-0.979,0.041c-5.697,0-10.548-4.359-11.05-10.143
		c-1.443-16.582-6.423-28.384-6.525-28.619C292.714,103.019,295.278,96.489,300.89,94.035z"/>
	<path fill="#595959" d="M321.396,122.701c-0.806-4.259-1.726-8.039-2.627-11.243c3.641-0.806,9.929-0.584,13.725,8.604
		c0.029,0.069,0.063,0.122,0.093,0.192c0,0-0.414,6.989-4.116,13.366c0,0-0.022-0.193-0.075-0.508
		C328.085,131.233,326.616,124.621,321.396,122.701z"/>
</g>
<g>
	<path fill="#FFFFFF" d="M147.652,88.021h-2.574c-0.949,0-1.717,0.768-1.717,1.716v6.007H29.227v-6.007
		c0-0.948-0.769-1.716-1.716-1.716h-2.575c-0.949,0-1.716,0.768-1.716,1.716v146.746c0,0.946,0.767,1.716,1.716,1.716h2.575
		c0.947,0,1.716-0.77,1.716-1.716V130.07h114.134v106.412c0,0.946,0.768,1.716,1.717,1.716h2.574c0.948,0,1.717-0.77,1.717-1.716
		V89.737C149.369,88.789,148.6,88.021,147.652,88.021z"/>
	<g>
		<path fill="#595959" d="M97.532,212.129c0.353-1.712-0.748-3.387-2.458-3.738l-12.083-2.49c-1.71-0.354-3.384,0.748-3.737,2.46
			l-5.62,27.261c-0.353,1.711,0.749,3.383,2.458,3.735l12.083,2.492c1.71,0.352,3.383-0.748,3.736-2.46L97.532,212.129z"/>
		<path fill="#595959" d="M105.352,210.223c0.353-1.711-0.749-3.385-2.459-3.737l-12.082-2.491c-1.711-0.354-3.383,0.75-3.736,2.461
			l-5.62,27.26c-0.353,1.712,0.748,3.384,2.459,3.736l12.081,2.49c1.71,0.354,3.384-0.746,3.737-2.458L105.352,210.223z"/>
		<path fill="#595959" d="M191.583,228.002c0.353-1.711-0.748-3.386-2.458-3.737l-12.083-2.492c-1.71-0.353-3.384,0.75-3.737,2.462
			l-5.62,27.26c-0.353,1.712,0.749,3.384,2.458,3.736l12.083,2.49c1.71,0.354,3.383-0.747,3.736-2.458L191.583,228.002z"/>
		<path fill="#595959" d="M199.041,233.058c0.354-1.711-0.748-3.386-2.458-3.738l-12.083-2.491c-1.71-0.353-3.384,0.75-3.736,2.462
			l-5.621,27.259c-0.353,1.712,0.749,3.384,2.459,3.737l12.083,2.49c1.71,0.353,3.383-0.748,3.736-2.458L199.041,233.058z"/>
		<path fill="#FFFFFF" d="M86.521,215.096c0.331,0.807,0.992,1.373,1.783,1.526l24.422,5.979c0.042,0.009,0.085,0.016,0.128,0.022
			c1.162,0.159,2.317-0.591,2.79-1.83c0.488-1.285-0.97-5.887-3.076-7.335l-17.934-10.184c-0.595-0.418-1.334-0.531-2.033-0.307
			c-0.7,0.219-1.299,0.753-1.648,1.472l-4.333,8.093C86.225,213.341,86.188,214.29,86.521,215.096z"/>
		<path fill="#FFFFFF" d="M189.536,224.766c-0.037-0.798-0.375-1.525-0.931-2.003c-0.553-0.483-1.277-0.672-1.989-0.522l-20.5,2.259
			c-2.507,0.498-5.667,4.147-5.727,5.521c-0.057,1.326,0.708,2.471,1.839,2.784c0.041,0.011,0.084,0.022,0.126,0.03l24.795,4.168
			c0.787,0.172,1.619-0.087,2.241-0.696c0.625-0.608,0.966-1.496,0.923-2.394L189.536,224.766z"/>
		<path fill="#308C08" d="M206.095,211.809l-12.718-2.621l-6.025-19.298c-1.173-3.76-3.193-6.521-5.487-6.994l-67.306-13.876
			c-2.293-0.473-5.893,1.277-7.807,4.253l-13.167,15.34l-12.717-2.622c-1.138-0.234-2.229,0.395-2.438,1.405l-1.17,5.675
			c-0.191,0.925,0.424,1.864,1.434,2.189l7.472,2.414c-0.03,0.217-0.072,0.438-0.084,0.65c-0.13,0.354-0.236,0.723-0.315,1.107
			l-6.995,25.527c-0.53,2.57,0.31,4.978,1.909,6.006c0.117,1.623,23.818,7.8,53.327,13.884s53.721,9.786,54.469,8.343
			c1.876-0.312,3.6-2.192,4.13-4.762l3.671-26.213c0.079-0.384,0.127-0.767,0.148-1.142c0.073-0.2,0.122-0.42,0.181-0.632
			l7.818,0.739c1.055,0.101,1.992-0.52,2.182-1.443l1.17-5.676C207.987,213.053,207.233,212.043,206.095,211.809z M110.699,175.833
			c0.797-1.212,2.699-2.028,3.426-1.878l66.185,13.646c0.527,0.107,1.636,1.162,2.48,3.52l8.847,24.249
			c-7.031-0.834-15.708-2.136-25.431-3.831l-1.781-2.824c-0.25-0.396-0.651-0.674-1.11-0.77l-41.629-8.583
			c-0.459-0.095-0.937,0.003-1.324,0.267l-2.753,1.892c-9.601-2.289-18.084-4.526-24.871-6.542L110.699,175.833z M92.601,202.969
			c0.699-0.225,1.438-0.111,2.033,0.307l17.934,10.184c2.106,1.448,3.564,6.05,3.076,7.335c-0.472,1.239-1.627,1.989-2.79,1.83
			c-0.043-0.007-0.087-0.014-0.128-0.022l-24.422-5.979c-0.791-0.153-1.453-0.72-1.783-1.526c-0.333-0.806-0.295-1.755,0.099-2.563
			l4.333-8.093C91.302,203.722,91.9,203.188,92.601,202.969z M156.45,241.015c-0.091,0.444-0.462,0.744-0.827,0.669l-40.214-8.291
			c-0.365-0.075-0.587-0.497-0.496-0.941l4.648-13.194c0.092-0.444,0.461-0.743,0.827-0.668l36.516,7.528
			c0.364,0.075,0.586,0.497,0.495,0.94L156.45,241.015z M189.392,236.306c-0.622,0.609-1.455,0.868-2.241,0.696l-24.795-4.168
			c-0.042-0.008-0.085-0.02-0.126-0.03c-1.131-0.313-1.896-1.458-1.839-2.784c0.06-1.373,3.219-5.022,5.727-5.521l20.5-2.259
			c0.711-0.149,1.436,0.039,1.989,0.522c0.556,0.478,0.894,1.205,0.931,2.003l0.779,9.146
			C190.357,234.81,190.017,235.697,189.392,236.306z"/>
		<path fill="#595959" d="M156.904,226.117l-36.516-7.528c-0.366-0.075-0.735,0.224-0.827,0.668l-4.648,13.194
			c-0.092,0.444,0.13,0.866,0.496,0.941l40.214,8.291c0.365,0.075,0.735-0.225,0.827-0.669l0.95-13.957
			C157.491,226.614,157.269,226.192,156.904,226.117z"/>
	</g>
</g>
<g>
	<g>
		
			<linearGradient id="SVGID_1_" gradientUnits="userSpaceOnUse" x1="500.8525" y1="-27.728" x2="670.1855" y2="-27.728" gradientTransform="matrix(-0.256 -1.0549 0.9718 -0.2359 558.1675 742.9635)">
			<stop  offset="0.6606" style="stop-color:#FFFFFF"/>
			<stop  offset="1" style="stop-color:#FFFFFF;stop-opacity:0"/>
		</linearGradient>
		<polygon fill="url(#SVGID_1_)" points="357.394,43.082 400.747,221.707 405.235,220.619 361.88,41.993 		"/>
		
			<linearGradient id="SVGID_2_" gradientUnits="userSpaceOnUse" x1="502.7207" y1="-36.0815" x2="672.0537" y2="-36.0815" gradientTransform="matrix(0.256 -1.0549 -0.9718 -0.2359 257.1655 742.9635)">
			<stop  offset="0.6606" style="stop-color:#FFFFFF"/>
			<stop  offset="1" style="stop-color:#FFFFFF;stop-opacity:0"/>
		</linearGradient>
		<polygon fill="url(#SVGID_2_)" points="462.048,41.993 466.536,43.082 423.181,221.707 418.694,220.619 		"/>
	</g>
	<g>
		<g>
			<path fill="#308C08" d="M398.626,208.144c0-3.905-1.912-7.069-6.18-7.069h-3.346c-4.27,0-6.182,3.164-6.182,7.069l-1.545,45.961
				c0,3.904,3.457,7.069,7.727,7.069h3.346c4.268,0,7.725-3.165,7.725-7.069L398.626,208.144z"/>
			<path fill="#308C08" d="M441.009,208.144c0-3.905-1.916-7.069-6.18-7.069h-3.35c-4.268,0-6.18,3.164-6.18,7.069l-1.547,45.961
				c0,3.904,3.459,7.069,7.727,7.069h3.35c4.264,0,7.727-3.165,7.727-7.069L441.009,208.144z"/>
		</g>
		<path fill="#41B111" d="M426.065,249.224h40.867l-1.912-8.604l-32.705-16.441c-5.029-9.799-12.146-23.513-13.98-26.257
			c-0.393-0.59-0.434-2.547-0.512-3.221c-0.486-4.035-0.967-8.07-1.482-12.102c-0.197-1.559-0.41-3.081-0.703-4.565
			c-0.635-3.213-1.639-6.251-3.674-9.111c-2.035,2.86-3.043,5.898-3.676,9.111c-0.293,1.484-0.506,3.006-0.705,4.565
			c-0.51,4.031-0.996,8.066-1.479,12.102c-0.082,0.674-0.123,2.631-0.514,3.221c-1.83,2.744-8.951,16.458-13.982,26.257
			l-32.699,16.441l-1.912,8.604h40.867l7.408,7.409h2.031c2.666,2.699,4.66,4.541,4.66,4.541s1.992-1.842,4.656-4.541h2.035
			L426.065,249.224z"/>
		<polygon fill="#308C08" points="416.157,204.402 411.964,205.891 407.771,204.402 408.729,191.961 411.964,184.164 
			415.194,191.961 		"/>
	</g>
</g>
</svg>
