<?xml version="1.0" encoding="utf-8"?>
<!-- Generator: Adobe Illustrator 15.1.0, SVG Export Plug-In . SVG Version: 6.00 Build 0)  -->
<!DOCTYPE svg PUBLIC "-//W3C//DTD SVG 1.1//EN" "http://www.w3.org/Graphics/SVG/1.1/DTD/svg11.dtd">
<svg version="1.1" id="圖層_1" xmlns="http://www.w3.org/2000/svg" xmlns:xlink="http://www.w3.org/1999/xlink" x="0px" y="0px"
	 width="570px" height="570px" viewBox="0 0 570 570" enable-background="new 0 0 570 570" xml:space="preserve">
<g>
	<path fill="#FFC683" d="M413.297,308.584c-2.937-6.963-6.821-9.874-20.662-9.127l2.115-0.494
		c15.133-2.967,30.434-26.371,25.242-40.274c-2.861-7.674-7.044-10.64-23.98-9.875c5.501-9.286,7.896-20.703,4.004-28.245
		c-3.977-7.7-8.778-9.992-28.013-6.416l-51.354,13.509l-9.266,5.033l-63.521,51.811c-88.31,60.929-142.926,216.564-142.926,216.564
		s70.532,61.552,158.252,7.793c53.542-32.813,81.922-72.15,95.91-97.828l22.896-8.327c14.675-4.748,27.076-29.805,20.271-42.996
		c-3.396-6.579-7.406-9.207-20.497-7.603l7.995-2.228C404.759,346.283,419.062,322.261,413.297,308.584z"/>
</g>
<g>
	<path fill="#EBEBEB" d="M213.551,27h142.896c17.155,0,31.064,13.852,31.064,30.937v374.302c0,17.085-13.909,30.935-31.064,30.935
		H213.551c-17.156,0-31.065-13.85-31.065-30.935V57.935C182.486,40.85,196.394,27,213.551,27z"/>
	<path fill="#2A2A2A" d="M196.257,88.766h178.25v314.165h-178.25V88.766L196.257,88.766z"/>
	<path fill="#2A2A2A" d="M284.999,43.776c2.112,0,3.826,1.707,3.826,3.813c0,2.106-1.714,3.813-3.826,3.813
		c-2.113,0-3.825-1.707-3.825-3.813C281.174,45.483,282.885,43.776,284.999,43.776z"/>
	<path fill="#808080" d="M270.464,60.552H300.3c2.111,0,3.825,1.705,3.825,3.813s-1.714,3.813-3.825,3.813h-29.835
		c-2.113,0-3.825-1.707-3.825-3.813C266.639,62.259,268.351,60.552,270.464,60.552z"/>
	<path fill="#BCBCBC" d="M286.252,448.595c-8.715,0-15.808-7.089-15.808-15.803s7.093-15.803,15.808-15.803
		c8.716,0,15.806,7.089,15.806,15.803C302.057,441.508,294.968,448.595,286.252,448.595z M286.252,418.212
		c-8.042,0-14.584,6.542-14.584,14.582s6.542,14.58,14.584,14.58c8.043,0,14.585-6.54,14.585-14.58S294.295,418.212,286.252,418.212
		z"/>
</g>
</svg>
