<?xml version="1.0" encoding="utf-8"?>
<!-- Generator: Adobe Illustrator 15.1.0, SVG Export Plug-In . SVG Version: 6.00 Build 0)  -->
<!DOCTYPE svg PUBLIC "-//W3C//DTD SVG 1.1//EN" "http://www.w3.org/Graphics/SVG/1.1/DTD/svg11.dtd">
<svg version="1.1" id="圖層_1" xmlns="http://www.w3.org/2000/svg" xmlns:xlink="http://www.w3.org/1999/xlink" x="0px" y="0px"
	 width="570px" height="360px" viewBox="0 0 570 360" enable-background="new 0 0 570 360" xml:space="preserve">
<g>
	<defs>
		
			<rect id="SVGID_1_" x="292.205" y="-104.186" transform="matrix(0.9839 0.1786 -0.1786 0.9839 46.8678 -90.8984)" width="472" height="638"/>
	</defs>
	<clipPath id="SVGID_2_">
		<use xlink:href="#SVGID_1_"  overflow="visible"/>
	</clipPath>
	<g clip-path="url(#SVGID_2_)">
		<path fill="#41B111" d="M68.443,55.506h433.115c12.689,0,22.977,10.287,22.977,22.979v204.494
			c0,12.689-10.287,22.977-22.977,22.977H68.443c-12.69,0-22.978-10.287-22.978-22.977V78.484
			C45.466,65.793,55.753,55.506,68.443,55.506z"/>
		<g opacity="0.2">
			<path fill="#EBEBEB" d="M68.443,55.506h433.115c12.689,0,22.977,10.287,22.977,22.979v204.494
				c0,12.689-10.287,22.977-22.977,22.977H68.443c-12.69,0-22.978-10.287-22.978-22.977V78.484
				C45.466,65.793,55.753,55.506,68.443,55.506z"/>
			<path fill="#2A2A2A" d="M62.561,103.029c0-3.472,2.809-6.287,6.275-6.287s6.276,2.815,6.276,6.287
				c0,3.473-2.81,6.287-6.276,6.287S62.561,106.502,62.561,103.029z"/>
			<path fill="#808080" d="M66.045,204.735v-48.009c0-1.578,1.277-2.857,2.854-2.857c1.575,0,2.852,1.279,2.852,2.857v48.009
				c0,1.578-1.276,2.857-2.852,2.857C67.322,207.593,66.045,206.313,66.045,204.735z"/>
			<path fill="#2A2A2A" d="M87.973,68.144H479.73v225.175H87.973V68.144z"/>
		</g>
	</g>
</g>
<g>
	<defs>
		
			<rect id="SVGID_3_" x="-172.204" y="-188.499" transform="matrix(0.9839 0.1786 -0.1786 0.9839 24.3374 -9.297)" width="472" height="638"/>
	</defs>
	<clipPath id="SVGID_4_">
		<use xlink:href="#SVGID_3_"  overflow="visible"/>
	</clipPath>
	<g clip-path="url(#SVGID_4_)">
		<g>
			<path fill="#41B111" d="M371.79,74.49c3.908,0,14.262,0.842,25.949,8.645c14.494,9.676,26.083,26.416,34.446,49.753
				c13.251,36.982,22.835,75.215,26.294,104.896c3.04,26.079,2.805,58.631-15.574,65.606c-2.765,1.048-5.654,1.58-8.587,1.58
				c-17.875,0-35.101-19.293-46.5-32.059c-1.521-1.704-2.957-3.313-4.269-4.732c-1.933-2.092-3.87-4.313-5.921-6.665
				c-4.222-4.841-8.588-9.847-13.45-14.331l-0.792-0.73l-0.669,0.845c-7.501,9.457-18.708,14.881-30.748,14.881
				c-17.457,0-32.976-11.725-37.737-28.511l-0.203-0.718l-0.746-0.01l-8.296-0.104l-1.976,0.025l-5.252,0.066l-0.746,0.01
				l-0.203,0.718c-4.756,16.794-20.275,28.522-37.74,28.522c-12.31,0-23.67-5.619-31.168-15.416l-0.66-0.862l-0.805,0.729
				c-5.109,4.624-9.667,9.848-14.075,14.899c-2.047,2.347-3.981,4.563-5.911,6.651c-1.311,1.42-2.747,3.028-4.267,4.731
				c-11.398,12.767-28.624,32.06-46.501,32.06c-2.934,0-5.823-0.532-8.587-1.58c-18.38-6.976-18.614-39.527-15.574-65.606
				c3.459-29.681,13.043-67.914,26.294-104.896c8.363-23.339,19.954-40.079,34.448-49.755c11.688-7.801,22.04-8.643,25.948-8.643
				c1.297,0,2.033,0.089,2.039,0.09l0.063,0.008h0.063c9.675,0.003,16.412,2.59,28.465,8.08c12.679,5.772,22.713,6.625,23.134,6.659
				l0.04,0.003h0.04h31.776h2.34h31.778h0.04l0.039-0.003c0.421-0.033,10.454-0.887,23.133-6.659
				c12.053-5.49,18.79-8.077,28.466-8.08h0.063l0.061-0.008C369.758,74.579,370.492,74.49,371.79,74.49 M371.79,73.49
				c-1.393,0-2.164,0.098-2.164,0.098c-9.627,0.003-16.212,2.4-28.88,8.17c-12.665,5.766-22.798,6.572-22.798,6.572H286.17h-2.34
				h-31.776c0,0-10.134-0.807-22.799-6.572c-12.668-5.77-19.253-8.167-28.879-8.17c0,0-0.773-0.098-2.164-0.098
				c-8.69,0-41.54,3.811-61.338,59.061c-22.967,64.099-43.912,158.957-10.134,171.775c2.989,1.134,5.978,1.646,8.942,1.646
				c20.765,0,40.4-25.089,51.503-37.112c6.101-6.604,12.496-14.768,19.922-21.488c7.353,9.607,18.931,15.809,31.962,15.809
				c18.41,0,33.922-12.371,38.702-29.25c3.263-0.041,5.833-0.074,7.229-0.092c1.541,0.02,4.515,0.057,8.271,0.104
				c4.786,16.873,20.293,29.238,38.699,29.238c12.781,0,24.162-5.969,31.531-15.26c7.169,6.611,13.38,14.516,19.314,20.939
				c11.104,12.022,30.739,37.112,51.503,37.112c2.966,0,5.951-0.511,8.941-1.646c33.778-12.818,12.834-107.676-10.133-171.775
				C413.33,77.305,380.482,73.49,371.79,73.49L371.79,73.49z"/>
		</g>
		<g>
			<path fill="#41B111" d="M184.407,118.82c21.99,0,39.881,17.891,39.881,39.881c0,21.991-17.891,39.88-39.881,39.88
				s-39.881-17.89-39.881-39.88C144.526,136.71,162.417,118.82,184.407,118.82 M184.407,117.82
				c-22.576,0-40.881,18.303-40.881,40.881c0,22.578,18.305,40.88,40.881,40.88c22.578,0,40.881-18.303,40.881-40.88
				C225.288,136.123,206.985,117.82,184.407,117.82L184.407,117.82z"/>
		</g>
		<g>
			<path fill="#41B111" d="M385.595,118.82c21.99,0,39.881,17.891,39.881,39.881c0,21.991-17.891,39.88-39.881,39.88
				s-39.881-17.89-39.881-39.88C345.714,136.71,363.604,118.82,385.595,118.82 M385.595,117.82
				c-22.577,0-40.881,18.303-40.881,40.881c0,22.578,18.304,40.88,40.881,40.88c22.578,0,40.881-18.303,40.881-40.88
				C426.476,136.123,408.173,117.82,385.595,117.82L385.595,117.82z"/>
		</g>
		<g>
			<path fill="#41B111" d="M239.319,201.599c14.7,0,26.659,11.429,26.659,25.477s-11.959,25.477-26.659,25.477
				c-14.699,0-26.658-11.429-26.658-25.477S224.62,201.599,239.319,201.599 M239.319,200.599c-15.275,0-27.658,11.854-27.658,26.477
				s12.383,26.477,27.658,26.477s27.659-11.854,27.659-26.477S254.595,200.599,239.319,200.599L239.319,200.599z"/>
		</g>
		<g>
			<path fill="#41B111" d="M330.097,201.599c14.699,0,26.658,11.429,26.658,25.477s-11.959,25.477-26.658,25.477
				c-14.7,0-26.659-11.429-26.659-25.477S315.396,201.599,330.097,201.599 M330.097,200.599c-15.275,0-27.659,11.854-27.659,26.477
				s12.384,26.477,27.659,26.477c15.274,0,27.658-11.854,27.658-26.477S345.371,200.599,330.097,200.599L330.097,200.599z"/>
		</g>
		<g>
			<path fill="#41B111" d="M385.837,129.041c5.554,0,10.072,4.519,10.072,10.072c0,5.554-4.519,10.073-10.072,10.073
				s-10.072-4.519-10.072-10.073C375.765,133.56,380.283,129.041,385.837,129.041 M385.837,128.041
				c-6.115,0-11.072,4.958-11.072,11.072c0,6.115,4.957,11.073,11.072,11.073s11.072-4.958,11.072-11.073
				C396.909,132.999,391.952,128.041,385.837,128.041L385.837,128.041z"/>
		</g>
		<g>
			<path fill="#41B111" d="M385.837,168.585c5.554,0,10.072,4.518,10.072,10.072s-4.519,10.072-10.072,10.072
				s-10.072-4.519-10.072-10.072S380.283,168.585,385.837,168.585 M385.837,167.585c-6.115,0-11.072,4.957-11.072,11.072
				c0,6.115,4.957,11.072,11.072,11.072s11.072-4.957,11.072-11.072C396.909,172.542,391.952,167.585,385.837,167.585
				L385.837,167.585z"/>
		</g>
		<g>
			<path fill="#41B111" d="M405.609,148.813c5.554,0,10.072,4.519,10.072,10.072c-0.001,5.554-4.52,10.072-10.073,10.072
				s-10.072-4.519-10.072-10.072S400.055,148.813,405.609,148.813 M405.609,147.813c-6.115,0-11.073,4.958-11.073,11.072
				c0,6.115,4.958,11.072,11.072,11.072c6.115,0,11.072-4.957,11.073-11.072C416.682,152.771,411.724,147.813,405.609,147.813
				L405.609,147.813z"/>
		</g>
		<g>
			<path fill="#41B111" d="M366.064,148.813c5.554,0,10.072,4.519,10.072,10.072s-4.519,10.072-10.072,10.072
				s-10.072-4.519-10.072-10.072S360.511,148.813,366.064,148.813 M366.064,147.813c-6.114,0-11.072,4.958-11.072,11.072
				c0,6.115,4.958,11.072,11.072,11.072c6.115,0,11.072-4.957,11.072-11.072C377.137,152.771,372.18,147.813,366.064,147.813
				L366.064,147.813z"/>
		</g>
		<g>
			<path fill="#41B111" d="M271.317,145.461c2.253,0,4.086,1.921,4.086,4.283s-1.833,4.282-4.086,4.282h-12.35
				c-2.253,0-4.086-1.921-4.086-4.282s1.833-4.283,4.086-4.283H271.317 M271.317,144.461h-12.35c-2.81,0-5.086,2.365-5.086,5.283
				c0,2.917,2.276,5.282,5.086,5.282h12.35c2.81,0,5.086-2.365,5.086-5.282C276.403,146.826,274.127,144.461,271.317,144.461
				L271.317,144.461z"/>
		</g>
		<g>
			<path fill="#41B111" d="M311.035,145.461c2.253,0,4.086,1.921,4.086,4.283s-1.833,4.282-4.086,4.282h-12.351
				c-2.253,0-4.086-1.921-4.086-4.282s1.833-4.283,4.086-4.283H311.035 M311.035,144.461h-12.351c-2.81,0-5.086,2.365-5.086,5.283
				c0,2.917,2.276,5.282,5.086,5.282h12.351c2.809,0,5.086-2.365,5.086-5.282C316.121,146.826,313.844,144.461,311.035,144.461
				L311.035,144.461z"/>
		</g>
		<g>
			<path fill="#41B111" d="M191.986,130.304c1.348,0,2.444,1.097,2.444,2.445v14.928v1h1h14.929c1.348,0,2.445,1.097,2.445,2.445
				v15.158c0,1.348-1.097,2.445-2.445,2.445h-14.929h-1v1v14.929c0,1.349-1.097,2.445-2.444,2.445h-15.158
				c-1.348,0-2.444-1.097-2.444-2.445v-14.929v-1h-1h-14.928c-1.348,0-2.445-1.097-2.445-2.445v-15.158
				c0-1.348,1.097-2.445,2.445-2.445h14.928h1v-1v-14.928c0-1.348,1.097-2.445,2.444-2.445H191.986 M191.986,129.304h-15.158
				c-1.902,0-3.444,1.542-3.444,3.445v14.928h-14.928c-1.903,0-3.445,1.543-3.445,3.445v15.158c0,1.903,1.542,3.445,3.445,3.445
				h14.928v14.929c0,1.902,1.542,3.445,3.444,3.445h15.158c1.902,0,3.444-1.543,3.444-3.445v-14.929h14.929
				c1.903,0,3.445-1.542,3.445-3.445v-15.158c0-1.902-1.542-3.445-3.445-3.445h-14.929v-14.928
				C195.431,130.846,193.889,129.304,191.986,129.304L191.986,129.304z"/>
		</g>
	</g>
</g>
<g>
	<defs>
		
			<rect id="SVGID_5_" x="292.205" y="-104.186" transform="matrix(0.9839 0.1786 -0.1786 0.9839 46.8678 -90.8984)" width="472" height="638"/>
	</defs>
	<clipPath id="SVGID_6_">
		<use xlink:href="#SVGID_5_"  overflow="visible"/>
	</clipPath>
	<g clip-path="url(#SVGID_6_)">
		<g>
			<path fill="#EBEBEB" d="M433.127,132.55c-22.968-64.095-63.501-58.963-63.501-58.963c-9.627,0.004-16.212,2.4-28.88,8.17
				c-12.665,5.766-22.798,6.572-22.798,6.572H286.17h-2.34h-31.776c0,0-10.134-0.807-22.799-6.572
				c-12.668-5.77-19.253-8.166-28.879-8.17c0,0-40.534-5.132-63.502,58.963c-22.967,64.099-43.912,158.957-10.134,171.775
				c23.927,9.076,47.757-21.727,60.445-35.467c6.101-6.604,12.496-14.768,19.922-21.488c7.353,9.607,18.931,15.809,31.962,15.809
				c18.41,0,33.922-12.371,38.702-29.25c3.263-0.041,5.833-0.074,7.229-0.092c1.541,0.02,4.515,0.057,8.271,0.104
				c4.786,16.873,20.293,29.238,38.699,29.238c12.781,0,24.162-5.969,31.531-15.26c7.169,6.611,13.38,14.516,19.314,20.939
				c12.689,13.74,36.519,44.543,60.444,35.467C477.038,291.507,456.094,196.649,433.127,132.55z"/>
		</g>
		<g>
			<path fill="#2A2A2A" d="M225.288,158.701c0-22.578-18.303-40.881-40.881-40.881c-22.576,0-40.881,18.303-40.881,40.881
				c0,22.578,18.305,40.88,40.881,40.88C206.985,199.581,225.288,181.278,225.288,158.701z"/>
		</g>
		<g>
			<path fill="#2A2A2A" d="M426.476,158.701c0-22.578-18.303-40.881-40.881-40.881c-22.577,0-40.881,18.303-40.881,40.881
				c0,22.578,18.304,40.88,40.881,40.88C408.173,199.581,426.476,181.278,426.476,158.701z"/>
		</g>
		<g>
			<path fill="#929292" d="M266.979,227.075c0-14.623-12.384-26.477-27.659-26.477s-27.658,11.854-27.658,26.477
				s12.383,26.477,27.658,26.477S266.979,241.698,266.979,227.075z"/>
		</g>
		<g>
			<path fill="#929292" d="M357.755,227.075c0-14.623-12.384-26.477-27.658-26.477c-15.275,0-27.659,11.854-27.659,26.477
				s12.384,26.477,27.659,26.477C345.371,253.552,357.755,241.698,357.755,227.075z"/>
		</g>
		<g>
			<path fill="#FEFFAD" d="M385.837,128.041c6.115,0,11.072,4.958,11.072,11.072c0,6.115-4.957,11.073-11.072,11.073
				s-11.072-4.958-11.072-11.073C374.765,132.999,379.722,128.041,385.837,128.041z"/>
		</g>
		<path fill="#FFFFFF" d="M385.837,167.585c6.115,0,11.072,4.957,11.072,11.072c0,6.115-4.957,11.072-11.072,11.072
			s-11.072-4.957-11.072-11.072C374.765,172.542,379.722,167.585,385.837,167.585z"/>
		<path fill="#FFFFFF" d="M416.682,158.885c-0.001,6.115-4.958,11.072-11.073,11.072c-6.114,0-11.072-4.957-11.072-11.072
			c0-6.114,4.958-11.072,11.073-11.072C411.724,147.813,416.682,152.771,416.682,158.885z"/>
		<g>
			<path fill="#FEFFAD" d="M377.137,158.885c0,6.115-4.957,11.072-11.072,11.072c-6.114,0-11.072-4.957-11.072-11.072
				c0-6.114,4.958-11.072,11.072-11.072C372.18,147.813,377.137,152.771,377.137,158.885z"/>
		</g>
		<g>
			<path fill="#929292" d="M276.403,149.744c0-2.918-2.276-5.282-5.086-5.282h-12.35c-2.81,0-5.086,2.364-5.086,5.282l0,0
				c0,2.918,2.276,5.283,5.086,5.283h12.35C274.127,155.027,276.403,152.662,276.403,149.744L276.403,149.744z"/>
		</g>
		<g>
			<path fill="#929292" d="M316.121,149.744c0-2.918-2.277-5.282-5.086-5.282h-12.351c-2.81,0-5.086,2.364-5.086,5.282l0,0
				c0,2.918,2.276,5.283,5.086,5.283h12.351C313.844,155.027,316.121,152.662,316.121,149.744L316.121,149.744z"/>
		</g>
		<g>
			<path fill="#929292" d="M210.359,147.676h-14.929v-14.928c0-1.903-1.542-3.444-3.444-3.444h-15.158
				c-1.902,0-3.444,1.541-3.444,3.444v14.928h-14.928c-1.903,0-3.445,1.543-3.445,3.445v15.157c0,1.903,1.542,3.445,3.445,3.445
				h14.928v14.929c0,1.902,1.542,3.445,3.444,3.445h15.158c1.902,0,3.444-1.543,3.444-3.445v-14.929h14.929
				c1.903,0,3.445-1.542,3.445-3.445v-15.157C213.805,149.219,212.263,147.676,210.359,147.676z"/>
		</g>
	</g>
</g>
</svg>
