<?xml version="1.0" encoding="utf-8"?>
<!-- Generator: Adobe Illustrator 15.1.0, SVG Export Plug-In . SVG Version: 6.00 Build 0)  -->
<!DOCTYPE svg PUBLIC "-//W3C//DTD SVG 1.1//EN" "http://www.w3.org/Graphics/SVG/1.1/DTD/svg11.dtd">
<svg version="1.1" id="圖層_1" xmlns="http://www.w3.org/2000/svg" xmlns:xlink="http://www.w3.org/1999/xlink" x="0px" y="0px"
	 width="570px" height="360px" viewBox="0 0 570 360" enable-background="new 0 0 570 360" xml:space="preserve">
<g>
	<g>
		<path fill="#EBEBEB" d="M299.251,88.011c-7.852-21.912-21.709-20.158-21.709-20.158c-3.291,0.001-5.543,0.82-9.873,2.793
			c-4.33,1.971-7.794,2.247-7.794,2.247h-10.864h-0.8h-10.863c0,0-3.465-0.276-7.794-2.247c-4.331-1.973-6.582-2.792-9.873-2.793
			c0,0-13.857-1.754-21.709,20.158c-7.853,21.914-15.013,54.343-3.465,58.725c8.18,3.103,16.326-7.428,20.664-12.125
			c2.086-2.258,4.271-5.049,6.811-7.346c2.514,3.284,6.473,5.405,10.928,5.405c6.293,0,11.596-4.229,13.23-10
			c1.115-0.014,1.994-0.025,2.471-0.031c0.527,0.007,1.545,0.02,2.828,0.036c1.637,5.768,6.938,9.996,13.23,9.996
			c4.369,0,8.26-2.041,10.779-5.217c2.45,2.26,4.574,4.962,6.603,7.158c4.338,4.697,12.484,15.228,20.664,12.125
			C314.263,142.354,307.103,109.925,299.251,88.011z"/>
	</g>
	<g>
		<path fill="#2A2A2A" d="M228.197,96.952c0-7.719-6.257-13.976-13.976-13.976s-13.977,6.257-13.977,13.976
			c0,7.718,6.258,13.976,13.977,13.976S228.197,104.67,228.197,96.952z"/>
	</g>
	<g>
		<path fill="#2A2A2A" d="M296.978,96.952c0-7.719-6.258-13.976-13.977-13.976c-7.718,0-13.976,6.257-13.976,13.976
			c0,7.718,6.258,13.976,13.976,13.976C290.72,110.927,296.978,104.67,296.978,96.952z"/>
	</g>
	<g>
		<path fill="#929292" d="M242.45,120.327c0-4.999-4.234-9.052-9.456-9.052s-9.456,4.053-9.456,9.052s4.234,9.052,9.456,9.052
			S242.45,125.326,242.45,120.327z"/>
	</g>
	<g>
		<path fill="#929292" d="M273.483,120.327c0-4.999-4.233-9.052-9.455-9.052c-5.223,0-9.456,4.053-9.456,9.052
			s4.233,9.052,9.456,9.052C269.25,129.378,273.483,125.326,273.483,120.327z"/>
	</g>
	<g>
		<path fill="#EBEBEB" d="M283.084,86.47c2.091,0,3.785,1.695,3.785,3.785c0,2.09-1.694,3.786-3.785,3.786s-3.785-1.695-3.785-3.786
			C279.299,88.165,280.993,86.47,283.084,86.47z"/>
	</g>
	<path fill="#EBEBEB" d="M283.084,99.989c2.091,0,3.785,1.695,3.785,3.785s-1.694,3.785-3.785,3.785s-3.785-1.695-3.785-3.785
		S280.993,99.989,283.084,99.989z"/>
	<path fill="#EBEBEB" d="M293.629,97.014c0,2.091-1.694,3.786-3.785,3.786s-3.785-1.695-3.785-3.786c0-2.09,1.694-3.785,3.785-3.785
		S293.629,94.924,293.629,97.014z"/>
	<g>
		<path fill="#EBEBEB" d="M280.11,97.014c0,2.091-1.695,3.786-3.786,3.786c-2.09,0-3.785-1.695-3.785-3.786
			c0-2.09,1.695-3.785,3.785-3.785C278.415,93.229,280.11,94.924,280.11,97.014z"/>
	</g>
	<g>
		<path fill="#929292" d="M245.672,93.89c0-0.998-0.778-1.806-1.739-1.806h-4.222c-0.96,0-1.739,0.809-1.739,1.806l0,0
			c0,0.998,0.779,1.806,1.739,1.806h4.222C244.894,95.695,245.672,94.887,245.672,93.89L245.672,93.89z"/>
	</g>
	<g>
		<path fill="#929292" d="M259.25,93.89c0-0.998-0.778-1.806-1.739-1.806h-4.222c-0.961,0-1.739,0.809-1.739,1.806l0,0
			c0,0.998,0.778,1.806,1.739,1.806h4.222C258.472,95.695,259.25,94.887,259.25,93.89L259.25,93.89z"/>
	</g>
	<g>
		<path fill="#929292" d="M223.093,93.183h-5.104v-5.104c0-0.651-0.527-1.178-1.178-1.178h-5.182c-0.65,0-1.178,0.527-1.178,1.178
			v5.104h-5.104c-0.65,0-1.177,0.527-1.177,1.178v5.181c0,0.651,0.526,1.178,1.177,1.178h5.104v5.104
			c0,0.65,0.527,1.178,1.178,1.178h5.182c0.65,0,1.178-0.527,1.178-1.178v-5.104h5.104c0.651,0,1.179-0.527,1.179-1.178V94.36
			C224.271,93.71,223.745,93.183,223.093,93.183z"/>
	</g>
</g>
<g>
	<g>
		<polygon fill="#41B111" points="417.391,165.745 417.391,198.145 451.014,212.541 451.014,183.746 451.014,165.745 		"/>
		<polygon fill="#308C08" points="484.638,165.745 484.638,198.145 451.014,212.541 451.014,183.746 451.014,165.745 		"/>
		<polygon fill="#595959" points="451.015,151.348 417.391,165.745 451.015,180.143 484.638,165.745 		"/>
		<polygon fill="#474747" points="484.638,165.745 451.015,151.348 451.014,151.348 451.014,180.143 451.015,180.143 		"/>
	</g>
	<g>
		<polygon fill="#41B111" points="451.015,212.605 451.015,245.005 484.638,259.402 484.638,230.607 484.638,212.605 		"/>
		<polygon fill="#308C08" points="518.262,212.605 518.262,245.005 484.638,259.402 484.638,230.607 484.638,212.605 		"/>
		<polygon fill="#595959" points="484.639,198.209 451.015,212.605 484.639,227.004 518.262,212.605 		"/>
	</g>
	<g>
		<polygon fill="#41B111" points="383.768,212.605 383.768,245.005 417.391,259.402 417.391,230.607 417.391,212.605 		"/>
		<polygon fill="#308C08" points="451.015,212.605 451.015,245.005 417.391,259.402 417.391,230.607 417.391,212.605 		"/>
		<polygon fill="#595959" points="417.392,198.209 383.768,212.605 417.392,227.004 451.015,212.605 		"/>
	</g>
</g>
<g>
	<rect x="83.56" y="224.351" fill="#FEFFAD" width="68.881" height="39.207"/>
	<rect x="78.75" y="207.425" fill="#EBEBEB" width="78.5" height="23.982"/>
	<rect x="113.75" y="204.888" fill="#308C08" width="8.5" height="59.67"/>
	<path fill="#41B111" d="M152.17,190.581c-3.24-6.339-10.829-8.942-16.95-5.814c-4.819,2.464-13.671,15.954-17.22,21.584
		c-3.549-5.63-12.401-19.12-17.22-21.584c-6.122-3.128-13.71-0.524-16.951,5.814c-3.24,6.341-0.907,14.017,5.215,17.146
		c3.534,1.807,13.154,1.896,20.654,1.65l-14.954,16.887l6.045,5.144L118,210.353l17.21,21.055l6.045-5.144l-14.953-16.887
		c7.499,0.246,17.12,0.156,20.654-1.65C153.077,204.598,155.412,196.922,152.17,190.581z M93.27,203.32
		c-3.445-1.761-4.759-6.081-2.935-9.648c1.824-3.568,6.095-5.034,9.539-3.272c3.445,1.761,10.559,13.545,10.559,13.545
		S96.714,205.081,93.27,203.32z M142.73,203.32c-3.445,1.761-17.163,0.624-17.163,0.624s7.113-11.784,10.558-13.545
		c3.444-1.762,7.716-0.296,9.54,3.272C147.488,197.239,146.175,201.56,142.73,203.32z"/>
</g>
<g>
	<rect x="30.766" y="194.069" fill="#EBEBEB" width="43.895" height="24.984"/>
	<rect x="27.701" y="183.282" fill="#EBEBEB" width="50.025" height="15.283"/>
	<rect x="50.005" y="181.666" fill="#308C08" width="5.417" height="38.025"/>
	<path fill="#41B111" d="M74.489,172.548c-2.065-4.039-6.901-5.698-10.802-3.705c-3.071,1.57-8.711,10.167-10.974,13.754
		c-2.262-3.587-7.903-12.184-10.973-13.754c-3.901-1.993-8.738-0.334-10.802,3.705c-2.065,4.041-0.579,8.933,3.323,10.926
		c2.252,1.151,8.383,1.209,13.162,1.052l-9.529,10.762l3.852,3.277l10.967-13.417l10.968,13.417l3.852-3.277l-9.528-10.762
		c4.778,0.157,10.91,0.1,13.162-1.052C75.067,181.481,76.556,176.589,74.489,172.548z M36.954,180.667
		c-2.195-1.122-3.032-3.875-1.87-6.148c1.162-2.274,3.883-3.208,6.078-2.085c2.196,1.122,6.729,8.632,6.729,8.632
		S39.149,181.789,36.954,180.667z M68.474,180.667c-2.195,1.123-10.938,0.399-10.938,0.399s4.533-7.511,6.728-8.632
		c2.195-1.123,4.917-0.188,6.08,2.085C71.505,176.792,70.668,179.545,68.474,180.667z"/>
</g>
<g>
	<circle fill="#41B111" cx="378.333" cy="129.378" r="34.013"/>
	<polygon fill="#FEFFAD" points="400.333,124.628 383.083,124.628 383.083,107.378 373.583,107.378 373.583,124.628 
		356.333,124.628 356.333,134.128 373.583,134.128 373.583,151.378 383.083,151.378 383.083,134.128 400.333,134.128 	"/>
</g>
<g>
	<circle fill="#41B111" cx="161.948" cy="159.917" r="23.346"/>
	<polygon fill="#FEFFAD" points="177.048,156.656 165.208,156.656 165.208,144.816 158.688,144.816 158.688,156.656 
		146.848,156.656 146.848,163.177 158.688,163.177 158.688,175.017 165.208,175.017 165.208,163.177 177.048,163.177 	"/>
</g>
<g>
	<circle fill="#41B111" cx="180.791" cy="266.757" r="15.679"/>
	<polygon fill="#FEFFAD" points="190.933,264.566 182.981,264.566 182.981,256.614 178.602,256.614 178.602,264.566 170.65,264.566 
		170.65,268.946 178.602,268.946 178.602,276.898 182.981,276.898 182.981,268.946 190.933,268.946 	"/>
</g>
</svg>
