<?xml version="1.0" encoding="utf-8"?>
<!-- Generator: Adobe Illustrator 15.1.0, SVG Export Plug-In . SVG Version: 6.00 Build 0)  -->
<!DOCTYPE svg PUBLIC "-//W3C//DTD SVG 1.1//EN" "http://www.w3.org/Graphics/SVG/1.1/DTD/svg11.dtd">
<svg version="1.1" id="圖層_1" xmlns="http://www.w3.org/2000/svg" xmlns:xlink="http://www.w3.org/1999/xlink" x="0px" y="0px"
	 width="570px" height="360px" viewBox="0 0 570 360" enable-background="new 0 0 570 360" xml:space="preserve">
<g>
	<rect x="281.945" y="24.606" fill="#2A2A2A" width="73.5" height="96.5"/>
	<g>
		<path fill="#EBEBEB" d="M358.527,16.149h-80.725c-1.724,0-3.123,1.4-3.123,3.125v107.285c0,1.724,1.399,3.123,3.123,3.123h80.725
			c1.725,0,3.125-1.399,3.125-3.123V19.274C361.652,17.549,360.252,16.149,358.527,16.149 M317.976,22.376
			c0.277,0,0.499,0.225,0.499,0.501s-0.222,0.499-0.499,0.499c-0.275,0-0.499-0.222-0.499-0.499S317.7,22.376,317.976,22.376
			 M318.145,127.763c-1.394,0-2.523-1.129-2.523-2.523c0-1.394,1.13-2.522,2.523-2.522c1.393,0,2.521,1.129,2.521,2.522
			C320.666,126.634,319.537,127.763,318.145,127.763 M352.842,120.049h-69.396V27.478h69.396V120.049z"/>
	</g>
</g>
<g>
	<rect x="77.32" y="210.18" fill="#2A2A2A" width="122.676" height="72.039"/>
	<g>
		<path fill="#EBEBEB" d="M198.718,205.707H79.73c-5.059,0-5.499,2.467-5.499,5.51v78.674c0,3.043,0,5.51,5.499,5.51h46.617
			c0,0-0.305,4.248-0.879,5.778s-1.109,2.22-2.411,3.521s-3.214,3.405-3.214,3.405s-1.378,1.302,1.147,1.684
			c2.526,0.382,6.544,0.229,8.495,0.229s25.14,0.03,25.14,0.03s1.913-0.183,2.87-0.298c0.957-0.114,2.717-0.459,1.531-1.722
			c-1.187-1.263-3.329-3.788-3.329-3.788l-0.804-0.995c0,0-1.072-1.53-1.378-3.482c-0.275-1.754-0.579-3.105-0.61-4.362h45.813
			c5.499,0,5.499-2.467,5.499-5.51v-78.674C204.217,208.174,204.217,205.707,198.718,205.707 M198.937,278.219H79.32v-67.154
			h119.617V278.219z"/>
	</g>
</g>
<g>
	<path fill="#EBEBEB" d="M426.402,163.869v83.674c0,2.453-1.986,4.441-4.438,4.441h-39.507c-2.452,0-4.439-1.988-4.439-4.441
		v-83.674c0-2.451,1.987-4.438,4.439-4.438h39.507C424.416,159.431,426.402,161.418,426.402,163.869z"/>
	<path fill="#2A2A2A" d="M417.222,162.733c0.671,0,1.214,0.543,1.214,1.212c0,0.67-0.543,1.213-1.214,1.213
		c-0.672,0-1.215-0.543-1.215-1.213C416.007,163.276,416.551,162.733,417.222,162.733z"/>
	<path fill="#808080" d="M397.573,163.406h9.274c0.306,0,0.552,0.246,0.552,0.551s-0.246,0.551-0.552,0.551h-9.274
		c-0.305,0-0.552-0.246-0.552-0.551S397.269,163.406,397.573,163.406z"/>
	<path fill="#2A2A2A" d="M423.962,167.643v75.684h-43.503v-75.684H423.962z"/>
</g>
</svg>
