<?xml version="1.0" encoding="utf-8"?>
<!-- Generator: Adobe Illustrator 15.1.0, SVG Export Plug-In . SVG Version: 6.00 Build 0)  -->
<!DOCTYPE svg PUBLIC "-//W3C//DTD SVG 1.1//EN" "http://www.w3.org/Graphics/SVG/1.1/DTD/svg11.dtd">
<svg version="1.1" id="圖層_1" xmlns="http://www.w3.org/2000/svg" xmlns:xlink="http://www.w3.org/1999/xlink" x="0px" y="0px"
	 width="540px" height="315px" viewBox="0 0 540 315" enable-background="new 0 0 540 315" xml:space="preserve">
<rect fill="#41B111" width="540" height="315"/>
<g>
	<path fill="#FFFFFF" d="M487.122,88.868l-8.209-12.076V38.768c0-5.216-4.229-9.445-9.445-9.445H430.53
		c-5.217,0-9.445,4.229-9.445,9.445v9.854c1.886-1.595,4.163-2.739,6.663-3.267v-6.587c0-1.533,1.25-2.781,2.782-2.781h38.938
		c1.534,0,2.782,1.248,2.782,2.781v32.668h-31.074c-1.746,1.605-3.863,2.812-6.211,3.465v10.313c1.446,0.501,2.371,1.266,2.371,2.12
		c0,1.511-2.885,2.735-6.441,2.735c-3.559,0-6.443-1.225-6.443-2.735c0-0.854,0.923-1.618,2.37-2.12V74.901
		c-2.14-0.595-4.085-1.654-5.736-3.05v4.94l-8.209,12.076c-0.699,0.943-1.117,2.106-1.117,3.371v7.772
		c0,3.129,2.536,5.666,5.666,5.666h65.148c3.13,0,5.668-2.537,5.668-5.666v-7.772C488.241,90.975,487.821,89.812,487.122,88.868z
		 M473.276,80.443c2.621,0,4.745,0.902,4.745,2.015s-2.124,2.015-4.745,2.015c-2.62,0-4.744-0.902-4.744-2.015
		S470.656,80.443,473.276,80.443z M468.859,88.001c0,1.112-2.124,2.016-4.745,2.016c-2.62,0-4.744-0.903-4.744-2.016
		c0-1.113,2.124-2.016,4.744-2.016C466.735,85.985,468.859,86.888,468.859,88.001z M464.114,74.899c2.621,0,4.745,0.903,4.745,2.017
		c0,1.112-2.124,2.015-4.745,2.015c-2.62,0-4.744-0.902-4.744-2.015C459.37,75.803,461.494,74.899,464.114,74.899z M454.953,80.443
		c2.62,0,4.744,0.902,4.744,2.015s-2.124,2.015-4.744,2.015c-2.619,0-4.744-0.902-4.744-2.015S452.334,80.443,454.953,80.443z
		 M481.578,99.014h-63.156v-5.779h63.156V99.014z"/>
	<circle fill="#FFFFFF" cx="430.893" cy="60.243" r="11.884"/>
</g>
<g>
	<path fill="#FFFFFF" d="M126.561,52.315l-10.336-6.95V34.55c0-2.617-2.12-4.738-4.738-4.738c-2.62,0-4.739,2.122-4.739,4.738v4.439
		l-14.015-9.424c-1.597-1.073-3.68-1.077-5.281-0.008L53.45,52.308c-2.175,1.456-2.761,4.4-1.304,6.575
		c0.914,1.367,2.415,2.105,3.944,2.105c0.907,0,1.822-0.259,2.633-0.801l31.358-20.982l31.189,20.976
		c2.173,1.46,5.116,0.884,6.577-1.289C129.309,56.721,128.732,53.776,126.561,52.315z"/>
	<g>
		<rect x="64.987" y="60.04" fill="#FFFFFF" width="11.519" height="11.519"/>
		<rect x="84.244" y="60.04" fill="#FFFFFF" width="11.516" height="11.519"/>
		<rect x="103.496" y="60.04" fill="#FFFFFF" width="11.516" height="11.519"/>
		<rect x="64.987" y="77.383" fill="#FFFFFF" width="11.519" height="11.518"/>
		<rect x="84.244" y="77.383" fill="#FFFFFF" width="11.516" height="11.518"/>
		<rect x="103.496" y="77.383" fill="#FFFFFF" width="11.516" height="11.518"/>
		<rect x="65.196" y="94.723" fill="#FFFFFF" width="11.517" height="11.52"/>
		<rect x="84.345" y="94.723" fill="#FFFFFF" width="11.519" height="11.52"/>
		<rect x="103.496" y="94.723" fill="#FFFFFF" width="11.516" height="11.52"/>
	</g>
</g>
<g>
	<g>
		<g>
			<rect x="249.396" y="34.825" fill="#FFFFFF" width="54.803" height="8.022"/>
			<rect x="235.802" y="34.825" fill="#FFFFFF" width="7.736" height="8.022"/>
		</g>
	</g>
	<g>
		<g>
			<rect x="249.396" y="63.143" fill="#FFFFFF" width="54.803" height="8.023"/>
			<rect x="235.802" y="63.143" fill="#FFFFFF" width="7.736" height="8.023"/>
		</g>
	</g>
	<g>
		<g>
			<rect x="249.396" y="92.154" fill="#FFFFFF" width="54.803" height="8.021"/>
			<rect x="235.802" y="92.154" fill="#FFFFFF" width="7.736" height="8.021"/>
		</g>
	</g>
</g>
</svg>
