<?xml version="1.0" encoding="utf-8"?>
<!-- Generator: Adobe Illustrator 15.1.0, SVG Export Plug-In . SVG Version: 6.00 Build 0)  -->
<!DOCTYPE svg PUBLIC "-//W3C//DTD SVG 1.1//EN" "http://www.w3.org/Graphics/SVG/1.1/DTD/svg11.dtd">
<svg version="1.1" id="圖層_1" xmlns="http://www.w3.org/2000/svg" xmlns:xlink="http://www.w3.org/1999/xlink" x="0px" y="0px"
	 width="570px" height="360px" viewBox="0 0 570 360" enable-background="new 0 0 570 360" xml:space="preserve">
<g>
	<path fill="#EBEBEB" d="M68.442,55.506h433.116c12.689,0,22.977,10.287,22.977,22.978v204.495
		c0,12.689-10.287,22.977-22.977,22.977H68.442c-12.69,0-22.977-10.287-22.977-22.977V78.483
		C45.465,65.793,55.752,55.506,68.442,55.506z"/>
	<path fill="#2A2A2A" d="M62.56,103.029c0-3.472,2.81-6.287,6.276-6.287s6.276,2.815,6.276,6.287c0,3.473-2.81,6.287-6.276,6.287
		S62.56,106.501,62.56,103.029z"/>
	<path fill="#808080" d="M66.044,204.735v-48.009c0-1.578,1.277-2.857,2.853-2.857s2.853,1.279,2.853,2.857v48.009
		c0,1.578-1.277,2.857-2.853,2.857S66.044,206.313,66.044,204.735z"/>
	<path fill="#2A2A2A" d="M87.973,68.143H479.73v225.175H87.973V68.143z"/>
</g>
</svg>
