<?xml version="1.0" encoding="utf-8"?>
<!-- Generator: Adobe Illustrator 15.1.0, SVG Export Plug-In . SVG Version: 6.00 Build 0)  -->
<!DOCTYPE svg PUBLIC "-//W3C//DTD SVG 1.1//EN" "http://www.w3.org/Graphics/SVG/1.1/DTD/svg11.dtd">
<svg version="1.1" id="圖層_1" xmlns="http://www.w3.org/2000/svg" xmlns:xlink="http://www.w3.org/1999/xlink" x="0px" y="0px"
	 width="570px" height="570px" viewBox="0 0 570 570" enable-background="new 0 0 570 570" xml:space="preserve">
<g>
	<circle fill="none" cx="285" cy="267.672" r="43.421"/>
	<path fill="#3D3D3D" d="M487.052,267.493l-52.514-52.512l-17.167,17.166l23.387,23.386h-93.43
		c-5.667-29.262-31.41-51.362-62.328-51.362c-35.07,0-63.5,28.43-63.5,63.5s28.43,63.5,63.5,63.5
		c30.917,0,56.66-22.099,62.327-51.359h93.431l-23.387,23.384l17.167,17.167l52.514-52.512l-0.18-0.18L487.052,267.493z
		 M285,311.094c-23.981,0-43.422-19.439-43.422-43.422c0-23.981,19.44-43.421,43.422-43.421s43.422,19.439,43.422,43.421
		C328.422,291.654,308.982,311.094,285,311.094z"/>
</g>
</svg>
