<?xml version="1.0" encoding="utf-8"?>
<!-- Generator: Adobe Illustrator 15.1.0, SVG Export Plug-In . SVG Version: 6.00 Build 0)  -->
<!DOCTYPE svg PUBLIC "-//W3C//DTD SVG 1.1//EN" "http://www.w3.org/Graphics/SVG/1.1/DTD/svg11.dtd">
<svg version="1.1" id="圖層_1" xmlns="http://www.w3.org/2000/svg" xmlns:xlink="http://www.w3.org/1999/xlink" x="0px" y="0px"
	 width="570px" height="570px" viewBox="0 -105 570 570" enable-background="new 0 -105 570 570" xml:space="preserve">
<g>
	<path fill="#FFC683" d="M390.08,169.529c-2.403-5.702-5.587-8.087-16.923-7.475l1.732-0.405
		c12.395-2.43,24.926-21.599,20.676-32.987c-2.345-6.285-5.77-8.713-19.643-8.088c4.506-7.605,6.467-16.956,3.279-23.133
		c-3.255-6.307-7.189-8.184-22.943-5.254L314.2,103.25l-7.589,4.122l-52.026,42.435c-72.329,49.901-117.062,177.375-117.062,177.375
		s57.769,50.413,129.615,6.383c43.854-26.875,67.098-59.095,78.554-80.125l18.752-6.82c12.018-3.889,22.177-24.411,16.602-35.216
		c-2.781-5.389-6.065-7.541-16.788-6.227l6.549-1.823C383.087,200.406,394.802,180.731,390.08,169.529z"/>
</g>
<g>
	<path fill-rule="evenodd" clip-rule="evenodd" fill="#EBEBEB" d="M226.48-69.29h117.039c14.051,0,25.443,11.343,25.443,25.336
		v306.568c0,13.993-11.393,25.336-25.443,25.336H226.48c-14.052,0-25.443-11.343-25.443-25.336V-43.953
		C201.037-57.947,212.428-69.29,226.48-69.29z"/>
	<path fill-rule="evenodd" clip-rule="evenodd" fill="#2A2A2A" d="M212.316-18.701H358.31v257.313H212.316V-18.701z"/>
	<path fill-rule="evenodd" clip-rule="evenodd" fill="#2A2A2A" d="M284.999-55.55c1.731,0,3.134,1.398,3.134,3.123
		s-1.402,3.123-3.134,3.123c-1.73,0-3.133-1.398-3.133-3.123S283.268-55.55,284.999-55.55z"/>
	<path fill-rule="evenodd" clip-rule="evenodd" fill="#808080" d="M273.094-41.81h24.437c1.73,0,3.133,1.398,3.133,3.123
		c0,1.725-1.402,3.123-3.133,3.123h-24.437c-1.73,0-3.133-1.398-3.133-3.123C269.962-40.412,271.364-41.81,273.094-41.81z"/>
	<path fill="#BCBCBC" d="M286.025,276.013c-7.138,0-12.945-5.806-12.945-12.942s5.808-12.942,12.945-12.942
		c7.139,0,12.945,5.806,12.945,12.942S293.164,276.013,286.025,276.013z M286.025,251.128c-6.587,0-11.945,5.357-11.945,11.942
		s5.358,11.942,11.945,11.942c6.588,0,11.945-5.357,11.945-11.942S292.613,251.128,286.025,251.128z"/>
</g>
<g display="none">
	<path display="inline" fill="#6D6D6D" d="M452.127,131.78l-43.01-43.009l-14.061,14.06l19.154,19.154h-77.17
		c-4.654-24.478-26.152-42.987-51.983-42.987v17.352c19.649,0,35.577,15.929,35.577,35.578c0,19.648-15.928,35.578-35.577,35.578
		v17.352c25.831,0,47.329-18.51,51.983-42.986h77.17l-19.154,19.152l14.061,14.061l43.01-43.01l-0.146-0.146L452.127,131.78z"/>
	<path display="inline" fill="#3D3D3D" d="M117.873,131.78l43.01-43.009l14.061,14.06l-19.154,19.154h77.17
		c4.654-24.478,26.152-42.987,51.984-42.987v17.352c-19.648,0-35.578,15.929-35.578,35.578c0,19.648,15.93,35.578,35.578,35.578
		v17.352c-25.832,0-47.328-18.51-51.982-42.986h-77.172l19.154,19.152l-14.061,14.061l-43.01-43.01l0.146-0.146L117.873,131.78z"/>
</g>
<g display="none">
	<path display="inline" fill="#6D6D6D" d="M117.873,131.78l43.01-43.009l14.061,14.06l-19.154,19.154h77.17
		c4.654-24.478,26.152-42.987,51.983-42.987v17.352c-19.649,0-35.577,15.929-35.577,35.578c0,19.648,15.928,35.578,35.577,35.578
		v17.352c-25.831,0-47.329-18.51-51.983-42.986h-77.17l19.154,19.152l-14.061,14.061l-43.01-43.01l0.146-0.146L117.873,131.78z"/>
	<path display="inline" fill="#3D3D3D" d="M452.127,131.78l-43.01-43.009l-14.061,14.06l19.154,19.154h-77.17
		c-4.654-24.478-26.152-42.987-51.984-42.987v17.352c19.648,0,35.578,15.929,35.578,35.578c0,19.648-15.93,35.578-35.578,35.578
		v17.352c25.832,0,47.328-18.51,51.982-42.986h77.172l-19.154,19.152l14.061,14.061l43.01-43.01l-0.146-0.146L452.127,131.78z"/>
</g>
<g display="none">
	<path display="inline" fill="#FFD89B" d="M302.81,116.93c-4.47-7.23-9.343-9.11-27.884-4.152l-49.2,17.1l-8.682,5.623
		l-62.128,59.224l-7.504,12.844l-22.055,89.436c-1.355,9.757,0.496,12.545,1.897,17.332c1.352,4.72,9.711,22.802,57.8,16.945
		c48.702-5.931,37.058-85.413,33.675-103.898l32.857-51.133l34.655-15.731C300.231,154.763,310.466,129.316,302.81,116.93z"/>
</g>
</svg>
