<?xml version="1.0" encoding="utf-8"?>
<!-- Generator: Adobe Illustrator 15.1.0, SVG Export Plug-In . SVG Version: 6.00 Build 0)  -->
<!DOCTYPE svg PUBLIC "-//W3C//DTD SVG 1.1//EN" "http://www.w3.org/Graphics/SVG/1.1/DTD/svg11.dtd">
<svg version="1.1" id="圖層_1" xmlns="http://www.w3.org/2000/svg" xmlns:xlink="http://www.w3.org/1999/xlink" x="0px" y="0px"
	 width="570px" height="360px" viewBox="0 0 570 360" enable-background="new 0 0 570 360" xml:space="preserve">
<g>
	<g>
		<path fill-rule="evenodd" clip-rule="evenodd" fill="#2A2A2A" d="M397.854,241.375l46.57,82.699H127.251l46.083-82.699H397.854z"
			/>
	</g>
	<g>
		<path fill="#EBEBEB" d="M471.223,324.194l-55.707-84.724c-0.83-1.26-4.676-2.271-8.598-2.271H163.08
			c-3.919,0-7.764,1.012-8.592,2.271l-55.709,84.724c-1.714,2.606,1.538,4.758,7.289,4.758h357.86
			C469.682,328.952,472.936,326.801,471.223,324.194 M421.521,274.189c0.166,0.281-0.311,0.508-1.059,0.508s-1.48-0.227-1.643-0.508
			c-0.16-0.279,0.311-0.507,1.055-0.507S421.357,273.91,421.521,274.189 M136.735,274.359c0.895-1.408,4.63-2.537,8.358-2.537
			s6.094,1.129,5.282,2.537c-0.822,1.426-4.582,2.594-8.392,2.594C138.173,276.953,135.829,275.785,136.735,274.359
			 M134.894,315.927l39.428-72.218h217.377l38.01,72.218H134.894z"/>
	</g>
</g>
</svg>
