<?xml version="1.0" encoding="utf-8"?>
<!-- Generator: Adobe Illustrator 15.1.0, SVG Export Plug-In . SVG Version: 6.00 Build 0)  -->
<!DOCTYPE svg PUBLIC "-//W3C//DTD SVG 1.1//EN" "http://www.w3.org/Graphics/SVG/1.1/DTD/svg11.dtd">
<svg version="1.1" id="圖層_2" xmlns="http://www.w3.org/2000/svg" xmlns:xlink="http://www.w3.org/1999/xlink" x="0px" y="0px"
	 width="570px" height="360px" viewBox="0 0 570 360" enable-background="new 0 0 570 360" xml:space="preserve">
<g>
	<g>
		
			<linearGradient id="SVGID_1_" gradientUnits="userSpaceOnUse" x1="553.8411" y1="267.9424" x2="739.2747" y2="267.9424" gradientTransform="matrix(-0.256 -1.0549 -0.9718 0.2359 812.4599 728.8878)">
			<stop  offset="0.6606" style="stop-color:#FFFFFF"/>
			<stop  offset="1" style="stop-color:#FFFFFF;stop-opacity:0"/>
		</linearGradient>
		<polygon fill="url(#SVGID_1_)" points="360.361,12.832 407.835,208.442 412.749,207.252 365.274,11.64 		"/>
		
			<linearGradient id="SVGID_2_" gradientUnits="userSpaceOnUse" x1="564.512" y1="315.6621" x2="749.9456" y2="315.6621" gradientTransform="matrix(0.256 -1.0549 0.9718 0.2359 -21.3276 728.8878)">
			<stop  offset="0.6606" style="stop-color:#FFFFFF"/>
			<stop  offset="1" style="stop-color:#FFFFFF;stop-opacity:0"/>
		</linearGradient>
		<polygon fill="url(#SVGID_2_)" points="474.966,11.64 479.88,12.832 432.404,208.442 427.489,207.252 		"/>
	</g>
	<g>
		<path fill="#AF200C" d="M405.514,200.825c0-4.277-2.094-7.741-6.77-7.741h-3.663c-4.677,0-6.77,3.464-6.77,7.741l-1.692,50.332
			c0,4.274,3.785,7.74,8.462,7.74h3.663c4.676,0,8.461-3.466,8.461-7.74L405.514,200.825z"/>
		<path fill="#AF200C" d="M451.927,200.825c0-4.277-2.098-7.741-6.77-7.741h-3.668c-4.674,0-6.768,3.464-6.768,7.741l-1.694,50.332
			c0,4.274,3.788,7.74,8.462,7.74h3.668c4.672,0,8.464-3.466,8.464-7.74L451.927,200.825z"/>
	</g>
	<g>
		<path fill="#FF3D10" d="M478.219,238.624l-35.813-18.004c-5.509-10.73-13.301-25.749-15.309-28.754
			c-0.433-0.646-0.477-2.789-0.563-3.527c-0.53-4.419-1.059-8.838-1.622-13.253c-0.215-1.707-0.448-3.374-0.77-4.999
			c-0.695-3.52-1.796-6.846-4.023-9.978c0,0,0,0,0,0.001v101.021c0.003-0.003,2.183-2.019,5.098-4.972h2.229l8.115-8.113h44.753
			L478.219,238.624z"/>
		<path fill="#EA2F0A" d="M416.093,170.087c-0.321,1.625-0.555,3.292-0.772,4.999c-0.558,4.414-1.089,8.833-1.62,13.253
			c-0.089,0.738-0.135,2.881-0.562,3.527c-2.004,3.005-9.803,18.023-15.313,28.754l-35.809,18.004l-2.094,9.423h44.753l8.113,8.113
			h2.225c2.92,2.956,5.103,4.972,5.103,4.972h0.002V160.11C417.891,163.243,416.787,166.567,416.093,170.087z"/>
		<polygon fill="#EA2F0A" points="424.71,194.169 420.119,199.123 420.119,194.169 		"/>
		<polygon fill="#A9E3F7" points="424.71,194.169 420.119,195.799 415.528,194.169 416.576,180.545 420.119,172.006 
			423.656,180.545 		"/>
		<polygon fill="#C12208" points="404.677,248.047 397.826,220.62 394.485,248.047 		"/>
		<polygon fill="#C12208" points="415.015,256.16 411.321,246.806 412.79,256.16 		"/>
		<polygon fill="#D2F5FF" points="420.119,172.006 420.119,178.772 423.656,180.545 		"/>
	</g>
</g>
<g>
	<g>
		<path fill="#FFE5B0" d="M275.639,23.453c0.099-0.259,0.248-0.477,0.363-0.721c-0.085-0.625-0.139-1.257-0.139-1.906
			c0-7.792,6.178-14.107,13.802-14.107c7.622,0,13.804,6.315,13.804,14.107c0,5.135-2.694,9.619-6.712,12.083
			c-10.791,28.481-3.796,56.808-3.679,57.268c1.674,6.424-1.898,13.067-7.989,14.853c-1.03,0.301-2.059,0.443-3.076,0.443
			c-5.024,0-9.635-3.506-11.044-8.859C270.58,95.137,261.592,59.987,275.639,23.453z"/>
		<path fill="#595959" d="M270.272,44.942c1.119-6.976,2.922-14.296,5.634-21.692c5.091-0.542,13.747,0.433,20.721,10.589
			c-1.878,5.521-3.116,10.993-3.896,16.23C289.517,47.958,280.967,43.321,270.272,44.942z"/>
		<path fill="#F2C599" d="M282.369,105.473c1.017,0,2.045-0.142,3.075-0.443c6.092-1.786,9.663-8.429,7.989-14.853
			c-0.079-0.316-3.393-13.736-1.988-31.322c-5.189,4.668-21.371,21.134-17.913,42.225
			C275.691,103.831,278.932,105.473,282.369,105.473z"/>
		<path fill="#FEFFAD" d="M313.204,102.721c0,0,20.734-32.511-4.756-43.931c-25.49-11.422-22.897,15.817-22.897,37.782
			L313.204,102.721z"/>
	</g>
	<path fill="#196893" d="M322.805,168.478c-0.186-0.383-0.371-0.762-0.559-1.128c-0.048-0.633-0.097-1.333-0.147-2.076
		c-0.364-5.527-0.726-14.004-0.522-24.34c0.229-11.604,1.172-25.544,3.625-40.275c0.432-2.59,0.903-5.202,1.434-7.833l-40.852-6.818
		c-14.906,18.104-16.302,55.237-15.503,73.477c0.016,0.366,0.031,0.738,0.049,1.088c-0.399,0.603-0.809,1.241-1.223,1.905
		c-6.649,10.648-14.786,28.793-6.615,45.135c1.03,2.062,2.465,3.784,4.158,5.128c2.708,2.15,6.078,3.327,9.53,3.327
		c2.299,0,4.634-0.52,6.828-1.617c7.551-3.775,10.613-12.96,6.837-20.513c-1.134-2.269,1.159-8.435,4.47-14.081
		c0.078,0.166,0.145,0.331,0.229,0.492c0.817,1.549,18.103,35.197-6.102,58.737c-1.063,1.035-1.932,2.19-2.63,3.418
		c-3.274,5.764-2.523,13.212,2.332,18.203c2.997,3.081,6.979,4.628,10.96,4.628c3.843,0,7.688-1.437,10.662-4.329
		c0.673-0.656,1.305-1.324,1.942-1.99C340.71,228.727,332.394,188.235,322.805,168.478z"/>
	<path fill="#155B7A" d="M263.877,194.577c-0.612,9.339,0.851,14.724,2.928,18.163c2.708,2.15,6.078,3.327,9.53,3.327
		c2.299,0,4.634-0.52,6.829-1.617c7.551-3.775,10.612-12.96,6.837-20.513c-1.135-2.269,1.16-8.435,4.469-14.081
		C294.469,179.856,265.254,173.58,263.877,194.577z"/>
	<path fill="#155B7A" d="M288.299,260.707c2.997,3.081,6.979,4.628,10.96,4.628c3.843,0,7.688-1.437,10.662-4.329
		c0.673-0.656,1.305-1.324,1.944-1.99c2.234-8.49,1.545-16.442-3.928-19.688c-12.773-7.576-21.424,2.516-21.971,3.176
		C282.694,248.268,283.445,255.716,288.299,260.707z"/>
	<g>
		<path fill="#FFE5B0" d="M288.608,226.025c-2.638,0-5.266-1.096-7.14-3.237c-8.478-9.695-5.615-23.433-5.262-24.969
			c1.174-5.103,6.265-8.295,11.369-7.105c5.079,1.169,8.254,6.221,7.122,11.299c-0.379,1.8-0.638,6.366,1.043,8.287
			c3.446,3.94,3.05,9.929-0.894,13.38C293.047,225.253,290.823,226.025,288.608,226.025z"/>
		<path fill="#FFE5B0" d="M292.866,280.514c2.836,0,5.661-1.176,7.674-3.481c9.114-10.419,6.04-25.191,5.659-26.844
			c-1.269-5.484-6.736-8.915-12.224-7.639c-5.46,1.259-8.875,6.69-7.658,12.151c0.407,1.937,0.688,6.844-1.119,8.908
			c-3.709,4.233-3.277,10.676,0.959,14.385C288.09,279.681,290.486,280.514,292.866,280.514z"/>
	</g>
	<path fill="#155B7A" d="M294.469,179.856c0,0,22.374-1.078,28.493-1.938c0,0-15.769,10.807-24.445,12.546L294.469,179.856z"/>
	<path fill="#155B7A" d="M270.329,160.572c0,0,34.313-0.208,47.909,4.782c0,0-14.63-11.532-41.996-11.532
		C276.242,153.823,269.407,154.07,270.329,160.572z"/>
	<path fill="#155B7A" d="M318.239,95.468c0,0-18.007,20.833-3.76,36.41c0,0,8.407,6.194,12.538-1.679L318.239,95.468z"/>
	<g>
		<path fill="#FFE5B0" d="M321.357,93.439c5.801-2.538,12.564,0.109,15.1,5.911c0.121,0.279,1.456,3.379,3.069,8.582
			c1.927-1.197,4.24-1.799,6.666-1.484c5.604,0.729,9.515,5.844,8.788,11.427c-1.839,14.082-7.874,21.838-11.9,25.557
			c-1.867,2.781-4.891,4.755-8.489,5.069c-0.337,0.028-0.674,0.042-1.01,0.042c-5.884,0-10.893-4.5-11.41-10.474
			c-1.491-17.124-6.634-29.312-6.739-29.555C312.914,102.718,315.56,95.973,321.357,93.439z"/>
		<path fill="#595959" d="M342.533,123.042c-0.833-4.399-1.783-8.302-2.713-11.61c3.76-0.832,10.252-0.604,14.173,8.886
			c0.03,0.07,0.064,0.125,0.097,0.197c0,0-0.427,7.218-4.251,13.803c0,0-0.022-0.199-0.077-0.525
			C349.442,131.853,347.922,125.025,342.533,123.042z"/>
	</g>
</g>
<g>
	<g>
		<polygon fill="#FFFFFF" points="162.243,90.775 147.045,90.775 147.036,90.775 131.84,90.775 116.633,90.775 101.427,90.775 
			86.229,90.775 86.22,90.775 71.024,90.775 55.817,90.775 55.817,105.982 55.817,121.188 55.817,136.394 71.024,136.394 
			86.22,136.394 86.229,136.394 101.427,136.394 116.633,136.394 131.84,136.394 147.036,136.394 147.045,136.394 162.243,136.394 
			177.448,136.394 177.448,121.188 177.448,105.982 177.448,90.775 		"/>
		<g>
			<rect x="55.817" y="90.775" fill="#A1CCD6" width="15.207" height="15.207"/>
			<rect x="55.817" y="121.188" fill="#A1CCD6" width="15.207" height="15.206"/>
			<rect x="71.024" y="105.982" fill="#A1CCD6" width="15.205" height="15.205"/>
			<rect x="86.22" y="90.775" fill="#A1CCD6" width="15.207" height="15.207"/>
			<rect x="86.22" y="121.188" fill="#A1CCD6" width="15.207" height="15.206"/>
			<rect x="101.427" y="105.982" fill="#A1CCD6" width="15.205" height="15.205"/>
			<rect x="116.633" y="90.775" fill="#A1CCD6" width="15.207" height="15.207"/>
			<rect x="116.633" y="121.188" fill="#A1CCD6" width="15.207" height="15.206"/>
			<rect x="131.84" y="105.982" fill="#A1CCD6" width="15.205" height="15.205"/>
			<rect x="147.036" y="90.775" fill="#A1CCD6" width="15.207" height="15.207"/>
			<rect x="147.036" y="121.188" fill="#A1CCD6" width="15.207" height="15.206"/>
			<rect x="162.243" y="105.982" fill="#A1CCD6" width="15.205" height="15.205"/>
		</g>
	</g>
	<path fill="#FFFFFF" d="M55.773,86.82c0-1.151-0.934-2.085-2.085-2.085h-1.946c-1.151,0-2.085,0.934-2.085,2.085v139.75
		c0,1.151,0.934,2.084,2.085,2.084h1.946c1.151,0,2.085-0.933,2.085-2.084V86.82z"/>
	<path fill="#FFFFFF" d="M183.564,86.82c0-1.151-0.933-2.085-2.084-2.085h-1.946c-1.151,0-2.085,0.934-2.085,2.085v139.75
		c0,1.151,0.934,2.084,2.085,2.084h1.946c1.151,0,2.084-0.933,2.084-2.084V86.82z"/>
	<path fill="#1E1E1E" d="M127.888,213.819c0.329-2.015-1.037-3.916-3.05-4.245l-14.223-2.328c-2.013-0.33-3.914,1.036-4.244,3.05
		l-5.253,32.091c-0.33,2.015,1.036,3.914,3.05,4.243l14.222,2.328c2.014,0.331,3.915-1.034,4.244-3.05L127.888,213.819z"/>
	<path fill="#424242" d="M118.851,216.418c0.33-2.015-1.035-3.915-3.049-4.245l-14.222-2.328c-2.013-0.329-3.913,1.037-4.243,3.051
		l-5.253,32.091c-0.33,2.015,1.036,3.913,3.05,4.243l14.221,2.328c2.014,0.33,3.914-1.034,4.244-3.049L118.851,216.418z"/>
	<path fill="#424242" d="M229.393,230.437c0.33-2.015-1.035-3.915-3.049-4.245l-14.222-2.328c-2.014-0.329-3.914,1.037-4.244,3.052
		l-5.253,32.089c-0.331,2.015,1.035,3.915,3.05,4.244l14.221,2.328c2.014,0.33,3.915-1.035,4.244-3.05L229.393,230.437z"/>
	<path fill="#424242" d="M238.343,235.98c0.329-2.016-1.036-3.916-3.05-4.245l-14.222-2.329c-2.013-0.329-3.914,1.037-4.244,3.051
		l-5.253,32.092c-0.33,2.014,1.036,3.913,3.05,4.242l14.221,2.328c2.015,0.33,3.914-1.034,4.243-3.049L238.343,235.98z"/>
	<polygon opacity="0.5" fill="#C9ECF2" points="109.03,202.119 230.586,221.974 219.861,183.09 134.316,169.76 	"/>
	<polygon opacity="0.5" fill="#FFFFFF" points="151.113,171.052 221.008,219.841 232.747,219.841 217.576,181.534 	"/>
	<g>
		<path fill="none" d="M141.93,233.39l-1.815,5.918c-0.086,0.522,0.193,1.004,0.623,1.073l47.338,7.751
			c0.429,0.07,0.847-0.297,0.933-0.82l0.126-4.689L141.93,233.39z"/>
		<path fill="none" d="M144.903,200.734c0.438-0.328,0.992-0.463,1.531-0.375l49.004,8.022c0.54,0.089,1.021,0.393,1.333,0.844
			l2.215,3.213c11.429,1.513,21.62,2.614,29.867,3.25l-11.49-27.879c-1.098-2.712-2.443-3.888-3.063-3.989l-77.912-12.755
			c-0.855-0.14-3.036,0.904-3.908,2.356l-20.046,23.208c8.019,2.028,18.03,4.233,29.344,6.443L144.903,200.734z"/>
		<path fill="#FFF100" d="M245.558,210.839l-14.972-2.45l-7.958-22.235c-1.55-4.333-4.041-7.458-6.74-7.901l-79.228-12.97
			c-2.7-0.442-6.818,1.772-8.909,5.339l-14.631,18.537l-14.972-2.451c-1.339-0.22-2.582,0.568-2.777,1.758l-1.094,6.68
			c-0.178,1.089,0.585,2.155,1.779,2.487l8.837,2.458c-0.025,0.256-0.063,0.515-0.068,0.765c-0.133,0.418-0.24,0.854-0.314,1.308
			l-6.941,30.133c-0.496,3.025,0.599,5.794,2.517,6.92c0.214,1.889,28.177,7.96,62.912,13.647
			c34.736,5.686,63.175,8.847,63.979,7.126c2.176-0.456,4.098-2.731,4.593-5.757l3.029-30.771c0.074-0.454,0.111-0.901,0.119-1.341
			c0.076-0.238,0.122-0.495,0.18-0.747l9.16,0.49c1.237,0.065,2.302-0.702,2.479-1.792l1.093-6.68
			C247.825,212.201,246.897,211.059,245.558,210.839z M132.481,173.421c0.872-1.453,3.053-2.496,3.908-2.356l77.912,12.755
			c0.619,0.102,1.964,1.277,3.063,3.989l11.49,27.879c-8.247-0.636-18.438-1.737-29.867-3.25l-2.215-3.213
			c-0.311-0.451-0.792-0.755-1.333-0.844l-49.004-8.022c-0.54-0.088-1.093,0.047-1.531,0.375l-3.124,2.338
			c-11.314-2.21-21.326-4.415-29.344-6.443L132.481,173.421z M188.076,248.132l-47.338-7.751c-0.43-0.069-0.709-0.551-0.623-1.073
			l1.815-5.918l47.205,9.232l-0.126,4.689C188.923,247.835,188.505,248.202,188.076,248.132z"/>
	</g>
	<path fill="#FFFFFF" d="M106.139,220.411c0.425,0.923,1.226,1.554,2.156,1.696l28.793,5.807c0.051,0.008,0.102,0.015,0.152,0.019
		c1.363,0.133,2.676-0.796,3.167-2.269c0.509-1.522-1.415-6.823-3.942-8.415l-21.422-11.024c-0.714-0.461-1.581-0.557-2.388-0.263
		c-0.807,0.291-1.479,0.943-1.854,1.798l-4.669,9.654C105.712,218.376,105.714,219.486,106.139,220.411z"/>
	<path fill="#FFFFFF" d="M226.85,226.759c-0.083-0.93-0.511-1.763-1.183-2.296c-0.67-0.535-1.523-0.722-2.347-0.513l-23.819,3.619
		c-2.903,0.701-6.417,5.113-6.42,6.719c-0.003,1.551,0.945,2.85,2.279,3.16c0.051,0.013,0.1,0.021,0.15,0.03l29.142,3.678
		c0.927,0.161,1.886-0.182,2.583-0.921c0.7-0.741,1.055-1.792,0.962-2.837L226.85,226.759z"/>
	<path fill="#424242" d="M188.825,229.901l-42.985-7.037c-0.429-0.07-0.846,0.296-0.932,0.819l-4.793,15.624
		c-0.086,0.522,0.193,1.004,0.623,1.073l47.338,7.751c0.429,0.07,0.847-0.297,0.933-0.82l0.44-16.337
		C189.533,230.453,189.254,229.972,188.825,229.901z"/>
	<path fill="#FFD400" d="M140.297,225.928c-0.555,1.313-1.78,2.128-3.057,2.005c-0.051-0.004-0.102-0.011-0.152-0.019l-28.793-5.807
		c-0.93-0.143-1.73-0.773-2.156-1.696c-0.425-0.925-0.427-2.035-0.006-2.997l4.669-9.654c0.375-0.854,1.047-1.507,1.854-1.798
		c0.807-0.294,1.673-0.198,2.388,0.263l19.055,9.806l28.194-2.299l-24.297-6.598l3.784-4.062
		c-11.314-2.21-21.326-4.415-29.344-6.443l20.046-23.208c0.872-1.453,3.053-2.496,3.908-2.356c-3.275-0.537-6.111-0.771-8.35-0.863
		c-0.093,0.141-0.202,0.272-0.289,0.419l-14.631,18.537l-14.972-2.451c-1.339-0.22-2.582,0.568-2.777,1.758l-1.094,6.68
		c-0.178,1.089,0.585,2.155,1.779,2.487l8.837,2.458c-0.025,0.256-0.063,0.515-0.068,0.765c-0.133,0.418-0.24,0.854-0.314,1.308
		l-6.941,30.133c-0.476,2.907,0.525,5.563,2.305,6.766l35.071-8.804C139.886,230.688,140.297,225.931,140.297,225.928z"/>
	<path fill="#FFD400" d="M189.009,247.312c-0.086,0.523-0.504,0.891-0.933,0.82l-47.338-7.751c-0.43-0.069-0.709-0.551-0.623-1.073
		l4.793-15.624l-12.702,23.708c9.092,1.762,19.585,3.636,30.792,5.471c3.11,0.509,6.167,0.998,9.16,1.464l9.652-2.736
		C189.322,249.308,189.009,247.312,189.009,247.312z"/>
	<path fill="#FFD400" d="M244.057,221.862c1.237,0.065,2.302-0.702,2.479-1.792l0.256-1.562l-16.207-10.12l4.311,12.983
		L244.057,221.862z"/>
	<path fill="#FFB600" d="M94.833,191.747l-0.54,3.294c-0.178,1.089,0.585,2.155,1.779,2.488l8.837,2.456l6.13-8.124L94.833,191.747z
		"/>
	<path fill="#E8E5C8" d="M130.118,222.576c-0.723,0.928-1.908,1.454-3.152,1.25c-1.718-0.28-2.895-1.831-2.762-3.533l-2.15-0.831
		c-0.986,1.718-2.95,2.737-5.02,2.399c-2.666-0.438-4.473-2.951-4.037-5.616c0.015-0.088,0.049-0.169,0.068-0.254l-5.23-2.019
		l-1.72,3.556c-0.422,0.961-0.419,2.072,0.007,2.996c0.425,0.924,1.225,1.555,2.154,1.696l7.788,1.571l22.17,1.917L130.118,222.576z
		"/>
</g>
</svg>
