<?xml version="1.0" encoding="utf-8"?>
<!-- Generator: Adobe Illustrator 15.1.0, SVG Export Plug-In . SVG Version: 6.00 Build 0)  -->
<!DOCTYPE svg PUBLIC "-//W3C//DTD SVG 1.1//EN" "http://www.w3.org/Graphics/SVG/1.1/DTD/svg11.dtd">
<svg version="1.1" id="圖層_1" xmlns="http://www.w3.org/2000/svg" xmlns:xlink="http://www.w3.org/1999/xlink" x="0px" y="0px"
	 width="570px" height="570px" viewBox="0 0 570 570" enable-background="new 0 0 570 570" xml:space="preserve">
<g>
	<circle fill="none" cx="285" cy="267.672" r="43.421"/>
	<path fill="#3D3D3D" d="M83.128,267.672l-0.18,0.18l52.514,52.512l17.167-17.167l-23.387-23.384h93.431
		c5.667,29.26,31.41,51.359,62.327,51.359c35.07,0,63.5-28.43,63.5-63.5s-28.43-63.5-63.5-63.5c-30.918,0-56.661,22.1-62.328,51.362
		h-93.43l23.387-23.386l-17.167-17.166l-52.514,52.512L83.128,267.672z M241.578,267.672c0-23.981,19.44-43.421,43.422-43.421
		s43.422,19.439,43.422,43.421c0,23.982-19.44,43.422-43.422,43.422S241.578,291.654,241.578,267.672z"/>
</g>
</svg>
