<?xml version="1.0" encoding="utf-8"?>
<!-- Generator: Adobe Illustrator 15.1.0, SVG Export Plug-In . SVG Version: 6.00 Build 0)  -->
<!DOCTYPE svg PUBLIC "-//W3C//DTD SVG 1.1//EN" "http://www.w3.org/Graphics/SVG/1.1/DTD/svg11.dtd">
<svg version="1.1" id="圖層_1" xmlns="http://www.w3.org/2000/svg" xmlns:xlink="http://www.w3.org/1999/xlink" x="0px" y="0px"
	 width="570px" height="570px" viewBox="0 -105 570 570" enable-background="new 0 -105 570 570" xml:space="preserve">
<g>
	<path fill="#FFFFFF" d="M288.879,41.557c-18.212,0-33.609,12.238-38.43,28.918l-2.249-3.453l-7.083,4.61l10.362,15.917
		l16.102-10.068l-4.481-7.166l-4.646,2.905c3.668-13.362,15.915-23.212,30.425-23.212c17.398,0,31.553,14.155,31.553,31.554
		c0,17.397-14.154,31.552-31.553,31.552c-13.07,0-24.604-7.859-29.381-20.023l-7.866,3.09c6.057,15.42,20.677,25.385,37.247,25.385
		c22.059,0,40.004-17.945,40.004-40.003C328.883,59.504,310.937,41.557,288.879,41.557z"/>
</g>
<g>
	<g>
		<path fill="#FFFFFF" d="M140.546,114.699c-1.191,0-2.393-0.37-3.422-1.136c-4.202-3.129-13.978-12.512-13.978-32.002
			c0-20.974,10.036-29.545,14.353-32.257c2.68-1.686,6.221-0.878,7.906,1.804c1.686,2.682,0.879,6.222-1.804,7.908
			c-2.107,1.324-8.984,6.865-8.984,22.545c0,14.692,7.163,21.167,9.358,22.802c2.541,1.892,3.066,5.485,1.174,8.025
			C144.024,113.901,142.296,114.699,140.546,114.699z"/>
		<path fill="#FFFFFF" d="M120.407,132.647c-1.19,0-2.392-0.37-3.42-1.136c-6.501-4.841-21.621-19.398-21.621-49.95
			c0-32.837,15.381-46.049,21.994-50.206c2.682-1.686,6.223-0.878,7.908,1.804c1.686,2.682,0.877,6.222-1.805,7.908
			c-4.999,3.142-16.627,13.378-16.627,40.494c0,25.353,11.889,36.943,17.001,40.75c2.54,1.892,3.066,5.485,1.175,8.025
			C123.886,131.848,122.158,132.647,120.407,132.647z"/>
		<path fill="#FFFFFF" d="M99.452,152.889c-1.191,0-2.393-0.37-3.421-1.136c-9.093-6.771-30.241-27.163-30.241-70.192
			c0-46.215,21.41-64.662,30.614-70.447c2.681-1.687,6.222-0.878,7.907,1.803c1.686,2.682,0.879,6.223-1.803,7.908
			C94.917,25.596,77.26,41.067,77.26,81.561c0,37.83,17.918,55.255,25.621,60.992c2.541,1.892,3.066,5.484,1.174,8.025
			C102.93,152.09,101.202,152.889,99.452,152.889z"/>
	</g>
	<g>
		<path fill="#FFFFFF" d="M424.85,112.388c-1.893-2.54-1.367-6.133,1.174-8.025c2.195-1.635,9.357-8.11,9.357-22.802
			c0-15.68-6.877-21.221-8.984-22.545c-2.682-1.686-3.488-5.226-1.803-7.908c1.686-2.682,5.227-3.49,7.906-1.804
			c4.316,2.712,14.352,11.284,14.352,32.257c0,19.49-9.775,28.873-13.977,32.002c-1.029,0.766-2.23,1.136-3.422,1.136
			C427.704,114.699,425.975,113.901,424.85,112.388z"/>
		<path fill="#FFFFFF" d="M444.987,130.336c-1.893-2.54-1.365-6.133,1.174-8.025c5.113-3.807,17.002-15.397,17.002-40.75
			c0-27.116-11.629-37.352-16.627-40.494c-2.682-1.686-3.49-5.226-1.805-7.908c1.686-2.682,5.227-3.49,7.908-1.804
			c6.613,4.156,21.994,17.369,21.994,50.206c0,30.552-15.121,45.109-21.621,49.95c-1.029,0.766-2.23,1.136-3.42,1.136
			C447.841,132.647,446.112,131.848,444.987,130.336z"/>
		<path fill="#FFFFFF" d="M465.944,150.578c-1.893-2.541-1.367-6.134,1.174-8.025c7.703-5.736,25.621-23.162,25.621-60.992
			c0-40.495-17.656-55.965-25.248-60.737c-2.682-1.685-3.488-5.226-1.803-7.908c1.686-2.681,5.227-3.489,7.906-1.803
			C482.8,16.9,504.21,35.346,504.21,81.561c0,43.029-21.148,63.421-30.242,70.192c-1.027,0.766-2.229,1.136-3.42,1.136
			C468.798,152.889,467.069,152.09,465.944,150.578z"/>
	</g>
</g>
</svg>
