<?xml version="1.0" encoding="utf-8"?>
<!-- Generator: Adobe Illustrator 15.1.0, SVG Export Plug-In . SVG Version: 6.00 Build 0)  -->
<!DOCTYPE svg PUBLIC "-//W3C//DTD SVG 1.1//EN" "http://www.w3.org/Graphics/SVG/1.1/DTD/svg11.dtd">
<svg version="1.1" id="圖層_1" xmlns="http://www.w3.org/2000/svg" xmlns:xlink="http://www.w3.org/1999/xlink" x="0px" y="0px"
	 width="570px" height="360px" viewBox="0 0 570 360" enable-background="new 0 0 570 360" xml:space="preserve">
<g>
	<radialGradient id="SVGID_1_" cx="283.9189" cy="183.9189" r="160.5915" gradientUnits="userSpaceOnUse">
		<stop  offset="0.3818" style="stop-color:#FFFFAA;stop-opacity:0.8"/>
		<stop  offset="1" style="stop-color:#FFFFAA;stop-opacity:0"/>
	</radialGradient>
	<circle fill="url(#SVGID_1_)" cx="285" cy="185" r="171.886"/>
	<g>
		<path fill="#2B8F01" d="M188.226,57.897l-8.936-11.957l-19.678,14.705l36.194,48.432l19.595-14.644l0.082-0.063l19.596-14.644
			L207.82,43.253L188.226,57.897z M195.188,95.524l-3.985,2.979l-3.228-4.317l3.986-2.979L195.188,95.524z M190.41,89.131
			l-3.985,2.978l-3.227-4.317l3.985-2.979L190.41,89.131z M185.633,82.737l-3.986,2.979l-3.227-4.318l3.985-2.979L185.633,82.737z
			 M180.854,76.344l-3.985,2.978l-3.227-4.317l3.985-2.979L180.854,76.344z M176.076,69.951l-3.985,2.979l-3.227-4.318l3.985-2.979
			L176.076,69.951z M171.299,63.557l-3.985,2.979l-3.227-4.318l3.985-2.978L171.299,63.557z M200.917,91.243l-3.985,2.979
			l-3.227-4.318l3.985-2.978L200.917,91.243z M196.14,84.849l-3.985,2.979l-3.227-4.317l3.985-2.979L196.14,84.849z M191.361,78.456
			l-3.985,2.978l-3.227-4.317l3.985-2.979L191.361,78.456z M186.584,72.063l-3.985,2.979l-3.228-4.318l3.986-2.979L186.584,72.063z
			 M181.806,65.669l-3.985,2.979l-3.227-4.317l3.985-2.979L181.806,65.669z M177.028,59.276l-3.986,2.978l-3.227-4.317l3.985-2.979
			L177.028,59.276z M206.646,86.961l-3.985,2.979l-3.227-4.318l3.985-2.979L206.646,86.961z M201.868,80.568l-3.985,2.978
			l-3.227-4.317l3.985-2.979L201.868,80.568z M197.091,74.174l-3.985,2.979l-3.227-4.317l3.985-2.979L197.091,74.174z
			 M192.313,67.781l-3.985,2.979l-3.227-4.317l3.985-2.979L192.313,67.781z M187.535,61.388l-3.985,2.978l-3.227-4.317l3.985-2.979
			L187.535,61.388z M182.757,54.994l-3.985,2.979l-3.227-4.318l3.985-2.978L182.757,54.994z M214.163,80.05l-3.985,2.979
			l-3.227-4.317l3.985-2.979L214.163,80.05z M209.385,73.657l-3.985,2.979l-3.227-4.318l3.985-2.979L209.385,73.657z
			 M204.607,67.263l-3.985,2.979l-3.227-4.317l3.985-2.979L204.607,67.263z M199.829,60.87l-3.985,2.979l-3.227-4.317l3.985-2.979
			L199.829,60.87z M219.893,75.769l-3.985,2.979l-3.228-4.318l3.986-2.979L219.893,75.769z M215.114,69.375l-3.985,2.979
			l-3.227-4.318l3.985-2.978L215.114,69.375z M210.337,62.982l-3.986,2.979l-3.227-4.318l3.985-2.979L210.337,62.982z
			 M205.559,56.588l-3.985,2.979l-3.227-4.318l3.985-2.978L205.559,56.588z M225.621,71.487l-3.985,2.979l-3.227-4.317l3.985-2.979
			L225.621,71.487z M220.844,65.094l-3.985,2.979l-3.227-4.318l3.985-2.979L220.844,65.094z M216.065,58.7l-3.985,2.979
			l-3.227-4.318l3.985-2.978L216.065,58.7z M211.288,52.307l-3.986,2.978l-3.227-4.317l3.986-2.979L211.288,52.307z"/>
		<path fill="#2B8F01" d="M327.819,304.896c0.346,1.51,1.85,2.453,3.359,2.107c1.509-0.346,2.453-1.85,2.108-3.357
			c-0.346-1.51-1.85-2.455-3.359-2.109S327.475,303.387,327.819,304.896z"/>
		<path fill="#2B8F01" d="M292.873,312.891c0.345,1.51,1.849,2.453,3.358,2.107s2.453-1.85,2.108-3.359
			c-0.346-1.51-1.85-2.453-3.359-2.107S292.527,311.381,292.873,312.891z"/>
		<path fill="#2B8F01" d="M296.391,330.654l40.967-9.371c3.447-0.789,5.591-4.27,4.789-7.775l-1.169-5.111l-0.415-1.811
			l-1.098-4.799l-5.285,1.209c0.047,0.135,0.089,0.273,0.122,0.418c0.474,2.07-0.821,4.131-2.892,4.605
			c-2.07,0.473-4.132-0.82-4.605-2.891c-0.033-0.145-0.056-0.287-0.071-0.43l-27.501,6.291c0.048,0.135,0.09,0.273,0.122,0.418
			c0.474,2.07-0.82,4.131-2.891,4.605c-2.07,0.473-4.133-0.82-4.606-2.891c-0.033-0.145-0.056-0.287-0.071-0.43l-5.77,1.32
			l1.098,4.797l0.415,1.813l1.168,5.109C289.5,329.238,292.944,331.441,296.391,330.654z M327.706,312.791l10.825-2.477l1.217,5.32
			l-10.825,2.477L327.706,312.791z M315.353,315.615l10.825-2.475l1.217,5.32l-10.825,2.477L315.353,315.615z M302.999,318.441
			l10.825-2.477l1.217,5.322l-10.825,2.475L302.999,318.441z M290.646,321.268l10.825-2.477l1.217,5.32l-10.825,2.477
			L290.646,321.268z"/>
		<path fill="#2B8F01" d="M374.209,97.118l3.775-12.123l-24.156-0.132l8.921,12.192l8.052,11.004l17.36,23.727l10.755-34.532
			L374.209,97.118z"/>
		<path fill="#2B8F01" d="M406.989,135.698l-16.029-0.088l11.263,15.392L406.989,135.698z"/>
	</g>
	<path fill-rule="evenodd" clip-rule="evenodd" fill="#FEFFAD" d="M390.96,62.666c4.557,0,8.25,3.693,8.25,8.25
		s-3.693,8.25-8.25,8.25s-8.25-3.693-8.25-8.25S386.403,62.666,390.96,62.666z"/>
	<g>
		<g>
			<path fill-rule="evenodd" clip-rule="evenodd" fill="#41B111" d="M285,62.5c67.654,0,122.5,54.846,122.5,122.5
				c0,67.654-54.846,122.5-122.5,122.5c-67.655,0-122.5-54.846-122.5-122.5C162.5,117.346,217.345,62.5,285,62.5z"/>
		</g>
		<path fill="#FEFFAD" d="M328.496,185l-67.389,51.148V133.852L328.496,185z"/>
	</g>
</g>
</svg>
