<?xml version="1.0" encoding="utf-8"?>
<!-- Generator: Adobe Illustrator 15.1.0, SVG Export Plug-In . SVG Version: 6.00 Build 0)  -->
<!DOCTYPE svg PUBLIC "-//W3C//DTD SVG 1.1//EN" "http://www.w3.org/Graphics/SVG/1.1/DTD/svg11.dtd">
<svg version="1.1" id="圖層_1" xmlns="http://www.w3.org/2000/svg" xmlns:xlink="http://www.w3.org/1999/xlink" x="0px" y="0px"
	 width="570px" height="570px" viewBox="0 0 570 570" enable-background="new 0 0 570 570" xml:space="preserve">
<path fill="#FFC683" d="M182.486,432.238v-80.353c-49.073,68.043-77.549,149.184-77.549,149.184s70.532,61.552,158.252,7.793
	c23.717-14.534,42.488-30.349,57.267-45.689H213.551C196.395,463.173,182.486,449.323,182.486,432.238z"/>
<path fill="#FFC683" d="M389.764,349.881c14.995-3.598,29.298-27.619,23.533-41.297c-2.937-6.963-6.821-9.874-20.662-9.127
	l2.115-0.494c15.133-2.967,30.434-26.371,25.242-40.274c-2.861-7.674-7.044-10.64-23.98-9.875
	c5.501-9.286,7.896-20.703,4.004-28.245c-2.58-4.996-5.513-7.712-12.504-8.029v137.969L389.764,349.881z"/>
<path fill="#FFC683" d="M402.266,359.711c-2.838-5.496-6.124-8.224-14.754-8.041v48.257
	C399.543,391.698,408.195,371.204,402.266,359.711z"/>
<path fill="#EBEBEB" d="M286.252,418.212c-8.042,0-14.584,6.542-14.584,14.582s6.542,14.58,14.584,14.58
	c8.043,0,14.585-6.54,14.585-14.58S294.295,418.212,286.252,418.212z"/>
<path fill="#EBEBEB" d="M387.512,212.539V57.936c0-17.085-13.909-30.937-31.064-30.937H213.551
	c-17.157,0-31.065,13.851-31.065,30.936v293.95v80.353c0,17.085,13.909,30.935,31.065,30.935h106.904h35.992
	c17.155,0,31.064-13.85,31.064-30.935v-32.312V351.67v-1.162V212.539z M284.999,43.776c2.112,0,3.826,1.707,3.826,3.813
	c0,2.106-1.714,3.813-3.826,3.813c-2.113,0-3.825-1.707-3.825-3.813C281.174,45.483,282.885,43.776,284.999,43.776z M270.464,60.552
	H300.3c2.111,0,3.825,1.705,3.825,3.813s-1.714,3.813-3.825,3.813h-29.835c-2.113,0-3.825-1.707-3.825-3.813
	C266.639,62.259,268.351,60.552,270.464,60.552z M196.257,402.931V88.766h178.25v314.165H196.257z M286.252,448.595
	c-8.715,0-15.808-7.089-15.808-15.803s7.093-15.803,15.808-15.803c8.716,0,15.806,7.089,15.806,15.803
	C302.057,441.508,294.968,448.595,286.252,448.595z"/>
<ellipse fill="#2A2A2A" cx="284.999" cy="47.589" rx="3.826" ry="3.813"/>
<path fill="#808080" d="M270.465,68.178H300.3c2.111,0,3.825-1.706,3.825-3.813s-1.714-3.813-3.825-3.813h-29.836
	c-2.113,0-3.825,1.706-3.824,3.813C266.64,66.471,268.352,68.178,270.465,68.178z"/>
<path fill="#BCBCBC" d="M286.252,416.99c-8.715,0-15.808,7.089-15.808,15.803s7.093,15.803,15.808,15.803
	c8.716,0,15.805-7.088,15.806-15.803C302.058,424.079,294.968,416.99,286.252,416.99z M286.252,447.374
	c-8.042,0-14.584-6.54-14.584-14.58s6.542-14.582,14.584-14.582c8.043,0,14.585,6.542,14.585,14.582
	S294.295,447.374,286.252,447.374z"/>
</svg>
