<?xml version="1.0" encoding="utf-8"?>
<!-- Generator: Adobe Illustrator 15.1.0, SVG Export Plug-In . SVG Version: 6.00 Build 0)  -->
<!DOCTYPE svg PUBLIC "-//W3C//DTD SVG 1.1//EN" "http://www.w3.org/Graphics/SVG/1.1/DTD/svg11.dtd">
<svg version="1.1" id="圖層_1" xmlns="http://www.w3.org/2000/svg" xmlns:xlink="http://www.w3.org/1999/xlink" x="0px" y="0px"
	 width="570px" height="570px" viewBox="0 -105 570 570" enable-background="new 0 -105 570 570" xml:space="preserve">
<g>
	<path fill="#6D6D6D" d="M489.052,166.494l-52.513-52.512l-17.167,17.166l23.386,23.386h-94.22
		c-5.683-29.886-31.931-52.485-63.469-52.485v21.185c23.991,0,43.438,19.448,43.438,43.438c0,23.989-19.446,43.438-43.438,43.438
		v21.186c31.538,0,57.786-22.6,63.469-52.483h94.22l-23.386,23.384l17.167,17.167l52.513-52.512l-0.179-0.179L489.052,166.494z"/>
	<path fill="#3D3D3D" d="M80.947,166.494l52.513-52.512l17.167,17.166l-23.386,23.386h94.22
		c5.683-29.886,31.931-52.485,63.47-52.485v21.185c-23.989,0-43.438,19.448-43.438,43.438c0,23.989,19.449,43.438,43.438,43.438
		v21.186c-31.539,0-57.785-22.6-63.467-52.483H127.24l23.386,23.384l-17.167,17.167l-52.513-52.512l0.179-0.179L80.947,166.494z"/>
</g>
</svg>
