<?xml version="1.0" encoding="utf-8"?>
<!-- Generator: Adobe Illustrator 15.1.0, SVG Export Plug-In . SVG Version: 6.00 Build 0)  -->
<!DOCTYPE svg PUBLIC "-//W3C//DTD SVG 1.1//EN" "http://www.w3.org/Graphics/SVG/1.1/DTD/svg11.dtd">
<svg version="1.1" id="圖層_1" xmlns="http://www.w3.org/2000/svg" xmlns:xlink="http://www.w3.org/1999/xlink" x="0px" y="0px"
	 width="570px" height="570px" viewBox="0 -105 570 570" enable-background="new 0 -105 570 570" xml:space="preserve">
<g>
	<path fill="#6D6D6D" d="M117.873,131.78l43.01-43.009l14.061,14.06l-19.154,19.154h77.17c4.654-24.478,26.152-42.987,51.983-42.987
		v17.352c-19.649,0-35.577,15.929-35.577,35.578c0,19.648,15.928,35.578,35.577,35.578v17.352c-25.831,0-47.329-18.51-51.983-42.986
		h-77.17l19.154,19.152l-14.061,14.061l-43.01-43.01l0.146-0.146L117.873,131.78z"/>
	<path fill="#3D3D3D" d="M452.127,131.78l-43.01-43.009l-14.061,14.06l19.154,19.154h-77.17
		c-4.654-24.478-26.152-42.987-51.984-42.987v17.352c19.648,0,35.578,15.929,35.578,35.578c0,19.648-15.93,35.578-35.578,35.578
		v17.352c25.832,0,47.328-18.51,51.982-42.986h77.172l-19.154,19.152l14.061,14.061l43.01-43.01l-0.146-0.146L452.127,131.78z"/>
</g>
</svg>
