<?xml version="1.0" encoding="utf-8"?>
<!-- Generator: Adobe Illustrator 15.1.0, SVG Export Plug-In . SVG Version: 6.00 Build 0)  -->
<!DOCTYPE svg PUBLIC "-//W3C//DTD SVG 1.1//EN" "http://www.w3.org/Graphics/SVG/1.1/DTD/svg11.dtd">
<svg version="1.1" id="圖層_1" xmlns="http://www.w3.org/2000/svg" xmlns:xlink="http://www.w3.org/1999/xlink" x="0px" y="0px"
	 width="400px" height="350px" viewBox="0 0 400 350" enable-background="new 0 0 400 350" xml:space="preserve">
<g>
	<g>
		<path fill="#FFFFFF" d="M256.508,300.181c0,6.13,4.987,11.118,11.117,11.118h16.008c6.13,0,11.117-4.988,11.117-11.118v-1.315
			c0-0.385,0-2.843,0-5.455c0-2.614,0-5.071,0-5.454v-1.315c0-6.13-4.988-11.117-11.119-11.117h-16.007
			c-6.13,0-11.116,4.987-11.116,11.117v1.318c-0.001,0.396-0.001,2.847-0.001,5.452c0,2.607,0,5.056,0.001,5.448V300.181z
			 M263.46,287.916l0.001-0.014v-1.263c0-2.303,1.867-4.177,4.163-4.177h16.007c2.298,0,4.165,1.883,4.165,4.197l0.002,6.749
			l-0.001,5.457l-0.001-0.006l0.002,0.058l-0.002,1.264c0,2.302-1.867,4.176-4.163,4.176l-16.008,0.001
			c-2.296,0-4.164-1.874-4.164-4.178v-1.26v-0.019v-0.02l-0.002-5.471l0.002-5.48L263.46,287.916z"/>
		<path fill="#FFFFFF" d="M305.675,275.612h-6.997v35.687h40.25c6.131,0,11.119-4.988,11.119-11.118
			c0-0.225-0.005-22.079-0.007-24.657h-6.946c0.004,2.516,0.013,24.438,0.013,24.657c0,2.303-1.874,4.177-4.179,4.177h-10.942
			l0.368-1.46c0.224-0.883,0.337-1.797,0.337-2.717c0-0.222-0.005-22.093-0.007-24.657h-6.946
			c0.006,2.516,0.012,24.436,0.012,24.657c0,2.303-1.874,4.177-4.177,4.177h-11.897V275.612z"/>
		<path fill="#FFFFFF" d="M214.154,275.523v35.685h7v-28.745h20.308c2.298,0,4.1,1.836,4.1,4.178l0.001,0.545
			c0.001,8.346,0.003,22.153,0,24.113h7.018v-24.658c0-6.13-4.988-11.117-11.118-11.117H214.154z"/>
		<path fill="#FFFFFF" d="M68.484,275.606H43.051c-6.13,0-11.118,4.987-11.118,11.118c0,0.053,0.002,9.205,0.004,16.396l0.003,8.257
			l29.604-0.091l0,2.606c0,2.303-1.873,4.177-4.176,4.177H31.935v6.94h25.433c6.129,0,11.117-4.996,11.117-11.137V275.606z
			 M61.487,304.294H38.874l0-1.173c-0.002-6.796,0-15.345,0.001-16.308v-0.089c0-2.304,1.874-4.178,4.176-4.178h18.436V304.294z"/>
		<path fill="#FFFFFF" d="M167.128,275.606v0.09h-0.071v35.683L203,311.301v-6.942h-28.944v-21.812h19.625
			c2.303,0,4.177,1.874,4.177,4.178v3.313h-17.193v6.946h24.133v-10.259c0-6.131-4.987-11.118-11.117-11.118H167.128z"/>
		<path fill="#FFFFFF" d="M77.528,311.483c1.326-2.449,13.293-23.771,13.888-24.822l0.047-0.084l0.061-0.076
			c2-2.478,4.098-3.733,6.234-3.733h1.769v28.75h7v-35.686l-8.77-0.004c-4.456,0-8.195,2.107-11.115,6.268
			c-1.996,2.843-6.549,10.776-10.016,16.93c-2.051,3.642-3.858,6.898-5.012,8.99l-1.975,3.586h7.83L77.528,311.483z"/>
		<path fill="#FFFFFF" d="M111.108,275.606v35.686h6.999v-28.745h11.896c2.27,0,4.117,1.874,4.117,4.178v0.557
			c0.001,8.423,0.003,22.251,0,24.101h7c0-1.55,0-10.145,0-24.08v-0.577c0-0.918-0.113-1.833-0.336-2.719l-0.367-1.459h10.941
			c2.303,0,4.177,1.874,4.177,4.178c0,0.22-0.006,22.145-0.012,24.657h6.947c0.001-2.526,0.007-24.436,0.007-24.657
			c0-6.131-4.988-11.118-11.119-11.118H111.108z"/>
	</g>
	<path fill="#FFFFFF" d="M355.936,275.523v1.246h3.479v9.313h1.398v-9.313h3.492v-1.246H355.936z M373.894,275.523l-2.528,7.347
		c-0.254,0.745-0.441,1.309-0.562,1.692c-0.106-0.345-0.274-0.865-0.504-1.563l-2.5-7.477h-2.104v10.56h1.347v-8.989l3.055,8.989
		h1.261l3.067-8.838v8.838h1.348v-10.56H373.894z"/>
	<g>
		<path fill="#FFFFFF" d="M228.888,34.196c-30.684,46.835-76.28,123.194-72.743,159.174c3.119,31.696,24.91,36.857,38.917,35.374
			c-13.15,10.916-35.97,11.813-60.146,4.498c-22.1-6.692-48.474-34.104-36.958-75.245c9.727-34.761,28.317-76.252,41.881-94.85
			h12.634c0,0,4.964,0.241,8.859-1.773c5.145-2.659,9.677-6.96,12.434-10.642c2.756-3.683,10.394-12.687,14.701-17.145
			L228.888,34.196z"/>
		<path fill="#FFFFFF" d="M260.768,117.975h51.776c-21.813,38.328-47.649,66.626-65.342,77.245
			c-15.728,9.435-29.481,14.147-37.733,13.559C205.928,192.861,238.22,151.342,260.768,117.975z"/>
	</g>
</g>
</svg>
