<?xml version="1.0" encoding="utf-8"?>
<!-- Generator: Adobe Illustrator 15.1.0, SVG Export Plug-In . SVG Version: 6.00 Build 0)  -->
<!DOCTYPE svg PUBLIC "-//W3C//DTD SVG 1.1//EN" "http://www.w3.org/Graphics/SVG/1.1/DTD/svg11.dtd">
<svg version="1.1" id="圖層_1" xmlns="http://www.w3.org/2000/svg" xmlns:xlink="http://www.w3.org/1999/xlink" x="0px" y="0px"
	 width="310px" height="310px" viewBox="0 0 310 310" enable-background="new 0 0 310 310" xml:space="preserve">
<g>
	<path fill="#FFFFFF" d="M183.919,24.537c-39.406,60.147-97.963,158.212-93.421,204.419c4.005,40.706,31.99,47.333,49.979,45.429
		c-16.888,14.019-46.194,15.171-77.242,5.776c-28.381-8.595-62.252-43.798-47.463-96.633
		c12.491-44.642,36.366-97.927,53.786-121.811h16.226c0,0,6.375,0.31,11.378-2.278c6.607-3.415,12.427-8.938,15.967-13.667
		c3.54-4.729,13.348-16.292,18.879-22.018L183.919,24.537z"/>
	<path fill="#FFFFFF" d="M224.86,132.13h66.493c-28.012,49.221-61.194,85.564-83.915,99.2
		c-20.198,12.117-37.861,18.169-48.46,17.412C154.432,228.303,195.902,174.981,224.86,132.13z"/>
</g>
</svg>
